<svg id="Layer_1" data-name="Layer 1" xmlns="http://www.w3.org/2000/svg" viewBox="0 0 548.95 524.95"><defs><style>.cls-1{fill:#7099bf;}.cls-2{fill:#92b9db;}.cls-3{fill:#94bbdc;}.cls-4{fill:#6a95ba;}.cls-5{fill:#1f4f78;}.cls-6{fill:#fefefe;}.cls-7{fill:#fdfefd;}.cls-8{fill:#fcfdfd;}.cls-9{fill:#fdfdfc;}.cls-10{fill:#5975f4;}.cls-11{fill:#1f4e79;}.cls-12{fill:#040406;}.cls-13{fill:#050505;}.cls-14{fill:#010101;}.cls-15{fill:#204e79;}.cls-16{fill:#204e78;}.cls-17{fill:#1f4e77;}.cls-18{fill:#1e4f78;}.cls-19{fill:#020202;}</style></defs><path class="cls-1" d="M265.86.23a.38.38,0,0,0,0-.23h17.15a.38.38,0,0,0,0,.23,2.21,2.21,0,0,1-1.74.44q-6.89,0-13.75,0A2.21,2.21,0,0,1,265.86.23Z"/><path class="cls-2" d="M548.72,254.75a.37.37,0,0,1,.23,0v15.38l-.11,0h-.12c-.54-.46-.46-1.08-.47-1.67q0-6,0-12.11C548.26,255.83,548.18,255.21,548.72,254.75Z"/><path class="cls-3" d="M266.43,525a.76.76,0,0,0,0-.21,2.1,2.1,0,0,1,1.74-.45q6.33,0,12.67,0a2.1,2.1,0,0,1,1.74.45.76.76,0,0,0,0,.21Z"/><path class="cls-4" d="M.22,270H.1l-.1-.06V255a.2.2,0,0,1,.22,0c.55.45.47,1.08.48,1.67q0,5.82,0,11.64C.69,268.88.77,269.51.22,270Z"/><path class="cls-5" d="M.22,270V255A235.32,235.32,0,0,1,4.4,215.66a251.77,251.77,0,0,1,27-75.22,262.21,262.21,0,0,1,41.1-55.7,272.06,272.06,0,0,1,57.51-45.47A281.2,281.2,0,0,1,251.29,1c4.85-.37,9.7-.72,14.57-.75h17.23a270.11,270.11,0,0,1,40.45,4,278.47,278.47,0,0,1,66,19.94,274.38,274.38,0,0,1,67.14,42.12,266.32,266.32,0,0,1,49.06,54.94,256.61,256.61,0,0,1,26.3,50.67,251.05,251.05,0,0,1,13,47.06,240.34,240.34,0,0,1,3.6,35.79V270.2c-4.09,138.56-120.94,250.59-266.17,254.54H266.4a283.78,283.78,0,0,1-56.25-7.12,14.28,14.28,0,0,0-2.9-.41c.08-.64.64-.49,1-.52a112.72,112.72,0,0,0,24.41-5.07,118.15,118.15,0,0,0,18.66-7.71,59.6,59.6,0,0,0,22.72-19.81,57.67,57.67,0,0,0,8.53-21c.19-.92.26-1.86.39-2.8a1.81,1.81,0,0,1,.62-1.36,17.13,17.13,0,0,1,3.84-.43,212,212,0,0,0,82.28-21.94c2-1,4.14-2,6.08-3.22,1-.5,1.94-1.07,2.93-1.56a4.28,4.28,0,0,0,2.16-2,2.13,2.13,0,0,0,1.87-.35c6.41-4,12.72-8.08,18.71-12.63A198.74,198.74,0,0,0,455.16,356a191,191,0,0,0,13-28.07A186.66,186.66,0,0,0,477.71,291c.67-4.48,1.17-9,1.54-13.49.44-5.27.74-10.56.66-15.84-.08-5.78-.31-11.58-.91-17.36a210.55,210.55,0,0,0-4.36-26.16c-1.06-4.55-2.37-9-3.8-13.48A186.5,186.5,0,0,0,457,172.22,198.32,198.32,0,0,0,427.08,131a204.37,204.37,0,0,0-19.9-18.42A213.14,213.14,0,0,0,386,97.49c-2.24-1.4-4.5-2.78-6.84-4A3.13,3.13,0,0,0,378,93a3.29,3.29,0,0,1-1.64-1,76.88,76.88,0,0,0-7.14-3.88,62.76,62.76,0,0,1-5.84-3c-.36-2-.58-4-1-5.9a35.42,35.42,0,0,0-1.86-6,3.53,3.53,0,0,0-3.18-2.55A3.92,3.92,0,0,0,353.73,73a32.53,32.53,0,0,1-4,5.54c-.28.31-.49.73-1,.74a198.87,198.87,0,0,0-29.31-8.55,220,220,0,0,0-26.19-3.93c-3.5-.33-7-.55-10.55-.61-3.21-.06-6.41-.34-9.63-.24-7.67.24-15.32.58-22.95,1.45a216.87,216.87,0,0,0-33.31,6.48A206.8,206.8,0,0,0,188.65,84a204.06,204.06,0,0,0-47.88,29.39,213.47,213.47,0,0,0-17.32,16,197.59,197.59,0,0,0-19,22.83A185.64,185.64,0,0,0,94.29,168a190.32,190.32,0,0,0-20.46,52.13,196.09,196.09,0,0,0-4,24.41c-.33,3.27-.59,6.55-.62,9.83,0,3-.34,6-.28,9a206.41,206.41,0,0,0,3.54,35.13A189.85,189.85,0,0,0,106.12,375a216.88,216.88,0,0,0,15.74,19,1.67,1.67,0,0,1,.48.61,2.45,2.45,0,0,1-.23,1.25c-3,8-5.08,16.26-7.43,24.44a135.9,135.9,0,0,0-4.85,25.29,74.16,74.16,0,0,0,1.24,23.81,28.08,28.08,0,0,1,.9,3.35,1,1,0,0,1-.22.95,158.17,158.17,0,0,1-13-9.64,266.23,266.23,0,0,1-59.19-65.82,254.94,254.94,0,0,1-23.82-48A249.39,249.39,0,0,1,2.11,294.73,218.59,218.59,0,0,1,.22,270Z"/><path d="M348.74,79.15a40.85,40.85,0,0,0,4.81-6.53c1.51-2.64,4.44-3.11,6.29-1.16a6.44,6.44,0,0,1,1.35,2.47,39.85,39.85,0,0,1,2.32,11.19,7.78,7.78,0,0,1,.21,4,35.44,35.44,0,0,1-5.6,15.59,4.83,4.83,0,0,0-.4.66c3.66-1.19,6.1-3.8,8.51-6.45,1.58-1.73,3.06-3.55,4.64-5.28a7.66,7.66,0,0,1,3.41-2.17,2.15,2.15,0,0,1,2.33.38l1.31.89c.9.09,1.21.8,1.52,1.43a27.46,27.46,0,0,1,2.6,9.88c.54,6.59-1.71,12.34-5.77,17.56a41,41,0,0,0-2.56,3.59,8.36,8.36,0,0,0,3.93-1.49c1.33-.78,2.57-1.69,3.91-2.47a9.93,9.93,0,0,1,2.41-1.1c1.77-.47,3,.34,3.15,2.11a17.6,17.6,0,0,1-.53,5.21c-1.34,6.5-2.92,13-6.14,18.89a40.64,40.64,0,0,1-6.85,9.13c-6,6.12-13.17,10.85-20.55,15.3a15.58,15.58,0,0,1-5.58,1,3.45,3.45,0,0,1-2.7-1.14,1.35,1.35,0,0,1-.19-.33c-.3-.82-.67-1.71.07-2.41s1.7-.39,2.51,0a3,3,0,0,0,3.35-.46c3.94-3.14,7.92-6.24,11.74-9.53,3.06-2.62,6.06-5.29,8.85-8.18a29.58,29.58,0,0,0,6.4-9.38,102.19,102.19,0,0,0,4.34-12.66c.1-.4.4-.88,0-1.21s-.86,0-1.27.11a48,48,0,0,0-7.37,3.35,37.91,37.91,0,0,1-5.82,2.59,10.53,10.53,0,0,1-2.48.52,2.05,2.05,0,0,1-2-.75c-.45-.67.06-1.21.42-1.75,2.66-4,5.57-7.84,7.93-12,3.07-5.45,4.65-11.16,3.63-17.38,0-.09,0-.18,0-.26-.15-.43,0-1.07-.51-1.23s-.72.43-1,.71c-3.08,2.91-5.9,6.07-9.33,8.63a45.88,45.88,0,0,1-13.68,6.9,4.13,4.13,0,0,1-1.71.23,2.39,2.39,0,0,1-2.15-1.49,1.8,1.8,0,0,1,.64-2.19,23.23,23.23,0,0,0,6-8.08,36.8,36.8,0,0,0,2.48-8.1c.65-3.35,1.76-6.64,1.63-10.1a18.06,18.06,0,0,0-.85-4.66c-.27-.83-.57-.83-1.12-.18a43.33,43.33,0,0,1-4.71,5.07,51,51,0,0,1-10.25,6.49,89.54,89.54,0,0,1-26,9.29,92.63,92.63,0,0,1-12.9,1.21c-11.35.41-22.69,0-34,.28-3.79.09-7.58.06-11.37.21-11.55.45-23.09,1-34.46,3.28a133.74,133.74,0,0,0-29.91,9.56,124,124,0,0,0-23,13.76c-.66.5-1.35,1-2.05,1.44a4.7,4.7,0,0,0-2,2.61c-.66,2.07-1.8,2.56-3.89,1.67a45.31,45.31,0,0,0-11.72-3.51c-6.75-.95-13,.11-18.46,4.23A20.2,20.2,0,0,0,122.27,151c-.7,5.5,1,10.48,3.32,15.34,2.39,5,5.85,9.48,9.41,13.82a29.26,29.26,0,0,0,2.37,2.07,4.83,4.83,0,0,1,1,1.05,1.79,1.79,0,0,1-.15,2.16A1.84,1.84,0,0,1,136,186a11.37,11.37,0,0,1-2.09-1.13c-1.65-1-1.85-.92-2.34.82a107.36,107.36,0,0,0-2.84,14.08,124.34,124.34,0,0,0-1,22,163.43,163.43,0,0,0,1.91,19.48,266.8,266.8,0,0,0,6.8,30.56,105.9,105.9,0,0,0,7,18A200.68,200.68,0,0,0,160.86,318c3.26,4.54,6.66,9,9.89,13.55a4.67,4.67,0,0,0,4.49,2.17,34.32,34.32,0,0,1,15.56,2.56c8.65,3.57,15.32,9.16,19.31,17.45a27.29,27.29,0,0,1,1.47,4.12,3.39,3.39,0,0,1,.19,1.26,1.89,1.89,0,0,1-1.42,1.82,1.81,1.81,0,0,1-2.07-.82c-.86-1.3-1.66-2.64-2.5-3.95A38.34,38.34,0,0,0,195,344.7c-8.23-5.55-17-6.53-26.26-2.72a37.49,37.49,0,0,0-11.5,7.59,89.62,89.62,0,0,0-9.59,10,117.64,117.64,0,0,0-8.71,13.51,163.59,163.59,0,0,0-10.69,22.21,189.29,189.29,0,0,0-6.62,20,200.32,200.32,0,0,0-5.38,28.47c-1.07,8.89-1,17.73,1.45,26.44,3,10.87,9.46,19.47,19.05,26,8.18,5.57,17.38,8.85,27,11.31a125,125,0,0,0,21.35,3.53,102.7,102.7,0,0,0,11.63.46,125.51,125.51,0,0,0,28.28-4,114.76,114.76,0,0,0,22.19-8.23c9.29-4.71,17.08-11.05,22.46-19.81a49.24,49.24,0,0,0,6.94-20.84c.47-4.43.45-8.81-1.23-13-2.94-7.37-8.66-11.48-16.79-12.27-3.81-.37-7.41.93-10.82,2.51a80.64,80.64,0,0,0-13,8.05c-4.75,3.41-9.18,7.22-14.16,10.34a60.44,60.44,0,0,1-24.88,8.91,25.12,25.12,0,0,1-12.38-1.23,17.08,17.08,0,0,1-8.74-7.24,28,28,0,0,1-3.61-11.44c-1.63-14,3.56-26,11.59-37.21a99.67,99.67,0,0,1,12.7-14,40,40,0,0,1,9.18-6.39,3.64,3.64,0,0,1,.73-.31,1.81,1.81,0,0,1,2,.59,1.46,1.46,0,0,1-.21,2c-2.53,3-4.83,6.25-7.64,9.08a3.07,3.07,0,0,0-.89,1.94c-1.39,12.15-3.56,24.18-6,36.18-.36,1.76-.78,3.51-1.11,5.27a3.85,3.85,0,0,1-.65,1.81.73.73,0,0,1-.75.1,59,59,0,0,1-5.37-2.45.94.94,0,0,1-.38-.5,3.44,3.44,0,0,1,.16-1.77q2.78-13.11,4.92-26.33a11.43,11.43,0,0,1,.59-3.21c-6.5,8.37-11.72,17.24-12.07,28a27.28,27.28,0,0,0,.4,7.38,28.93,28.93,0,0,0,1.86,6.92,6.06,6.06,0,0,0,1.64,2.46c2.48,2,5.18,3.61,8.6,3.64a47.4,47.4,0,0,0,21.13-4.87,14.86,14.86,0,0,0,1.79-1.11,54.29,54.29,0,0,0,9.65-6.19c3.93-2.95,7.65-6.15,11.75-8.9,6.4-4.28,13.21-7.66,21.12-8.48A23.4,23.4,0,0,1,273,431.53c6.38,4.92,9.43,11.6,10.66,19.19a50,50,0,0,1,.24,7,1.66,1.66,0,0,1-.34,1.33c-.49,2.72-.87,5.46-1.6,8.14a55.64,55.64,0,0,1-15,25.92,63.46,63.46,0,0,1-14.4,10.45,122.94,122.94,0,0,1-20.24,8.52,133.42,133.42,0,0,1-18.23,4.31c-2.26.39-4.56.54-6.84.79a138.26,138.26,0,0,1-46-3.9c-9-2.33-17.74-5.4-25.63-10.32a55.4,55.4,0,0,1-23-27.72,4.16,4.16,0,0,0-.8-1.6c-.56-2.44-1.21-4.87-1.67-7.33a72.8,72.8,0,0,1-.82-17.57,139.81,139.81,0,0,1,1.71-14.3,168.46,168.46,0,0,1,4.6-18.74c1.48-5.21,3-10.42,4.54-15.6.58-1.91,1.38-3.76,2.09-5.64-.33-.51-.06-1,.12-1.47,3.7-9.59,7.73-19,13.31-27.79a105.07,105.07,0,0,1,12.1-15.31,67.09,67.09,0,0,1,16.09-12.8,25.08,25.08,0,0,1,2.37-1.2c1-.42,1-.95.34-1.67-1.52-1.73-2.94-3.54-4.4-5.33-5.58-6.83-11.3-13.57-15.82-21.12a191.51,191.51,0,0,1-14.78-30.68,170.23,170.23,0,0,1-7-24,163.76,163.76,0,0,1-2.7-17.35,154.6,154.6,0,0,1-.68-22.25,157.63,157.63,0,0,1,2.75-23.9c.43-2.23.77-4.48,1.39-6.66A6.48,6.48,0,0,0,124,176.8a51.24,51.24,0,0,1-5.36-8.42,31.46,31.46,0,0,1-3.68-15.71c.65-13.39,9.58-24.32,24.5-26.58A34.58,34.58,0,0,1,154,127.27c.6.17,1.21.32,1.81.48a8.52,8.52,0,0,0,7.89-1.62,124.33,124.33,0,0,1,15.42-10.41,133.11,133.11,0,0,1,41.93-15,165.64,165.64,0,0,1,18.7-2.38c5.25-.37,10.51-.55,15.76-.8,4-.18,8,0,11.92-.2,11.56-.53,23.12,0,34.68-.28a69.63,69.63,0,0,0,15.84-2.42,82.77,82.77,0,0,0,23.53-10,32.41,32.41,0,0,0,5.67-4.48C347.56,79.69,347.94,79.09,348.74,79.15Z"/><path class="cls-6" d="M283.59,459.08c.15-4.15.14-8.28-1.06-12.31-2.14-7.22-5.92-13.34-13-17.08-6.22-3.28-12.78-3.25-19.45-1.42-7,1.93-13.06,5.57-18.73,9.84-4.87,3.66-9.46,7.66-14.71,10.85-1,.62-1.93,1.53-3.26,1.63a5.69,5.69,0,0,1-1.69-.27,202.93,202.93,0,0,1-19.53-7.07c-.59-.25-1.45-.25-1.59-1.12a440.29,440.29,0,0,0,7.51-43.7,2.25,2.25,0,0,1,.7-1.45c3-2.86,5.24-6.37,8.09-9.37a1.07,1.07,0,0,0,0-1.61,1.4,1.4,0,0,0-1.91-.29c-2.23,1.26-4.64,2.28-6.54,4-8,7-15.16,14.6-20.34,23.78a52.06,52.06,0,0,0-6.9,20.18c-.69,6.61-.25,13.17,2.78,19.3,3.16,6.37,8.61,9.65,15.89,10,9,.47,17.3-2.29,25.26-6.05,5.93-2.8,10.91-6.92,16-10.8,5.29-4,10.63-7.94,16.76-10.72,4.58-2.08,9.35-3.26,14.38-1.77,7.9,2.33,12.77,7.43,14.29,15.21s0,15-2.55,22.25c-4.35,12.1-12.84,20.94-24.3,27.2a112.38,112.38,0,0,1-39.53,12.51,122.53,122.53,0,0,1-59.16-6.85c-8.71-3.22-16.54-7.8-22.9-14.47a46.15,46.15,0,0,1-12.1-24.92c-1.39-8.32-.8-16.61.33-24.88a190.9,190.9,0,0,1,8.51-36.38,167.14,167.14,0,0,1,20.66-41.42c5.25-7.55,11.71-14.15,20-18.75,11.08-6.15,23.48-4.62,32.84,3.75a47.3,47.3,0,0,1,9.16,11.44c.28.48.58.95.89,1.42.46.71,1,1.21,2,.85a1.53,1.53,0,0,0,1-2,20.8,20.8,0,0,0-2.35-6.23c-7.52-12.28-18.61-18.62-33.61-18.27a5.17,5.17,0,0,1-4.86-2.2c-7.46-10.2-15.08-20.29-21.57-31.12a126.32,126.32,0,0,1-14.71-35.39,257.43,257.43,0,0,1-6-31.58c-1.73-15.3-1.34-30.51,2.26-45.58.32-1.33.76-2.63,1.1-3.95.15-.63.44-.79,1-.47l2.89,1.6c.84.47,1.7.92,2.47-.08a1.61,1.61,0,0,0-.48-2.47c-3.65-2.75-6.07-6.47-8.57-10.08-3.61-5.21-6.35-10.78-7.1-17.08-1.39-11.65,7.61-22.27,19.83-23.45a35.67,35.67,0,0,1,17.43,3l.85.38c3,1.32,3.35,1.16,4.39-1.89a3.12,3.12,0,0,1,1.18-1.51A149.83,149.83,0,0,1,189,117.56a133.92,133.92,0,0,1,38-11.68c11.76-1.81,23.63-2.17,35.5-2.41,13.58-.27,27.16,0,40.73-.42a80.14,80.14,0,0,0,30.15-7.2,84.55,84.55,0,0,0,15.27-8.41,38.39,38.39,0,0,0,6.78-6.88l.58-.7A14.3,14.3,0,0,1,357.52,88c-.84,5.75-1.88,11.47-4.26,16.86a20.46,20.46,0,0,1-5.56,7.44c-.74.63-1.56,1.24-1,2.36a2.38,2.38,0,0,0,3,1,43.8,43.8,0,0,0,9-3.77c5.09-2.61,9-6.54,12.93-10.45.92-.92,1.9-1.79,2.95-2.78a22.17,22.17,0,0,1,.75,9c-.66,5.9-3.5,11-6.79,15.82-1.72,2.54-3.48,5.06-5.2,7.6-.74,1.07-.46,1.59.92,1.67a8.21,8.21,0,0,0,3.14-.57c3.38-1.15,6.37-3.05,9.59-4.51a28.75,28.75,0,0,1,4.32-1.71c.88-.23,1.3-.08,1,.9A78.63,78.63,0,0,1,376,144.19a28.93,28.93,0,0,1-5.26,6.44c-6.25,6.31-13.28,11.79-20.27,17.3a2.83,2.83,0,0,1-3.45.32,3.24,3.24,0,0,0-.6-.27c-1.4-.48-2,0-1.78,1.33.07.42.18.83.28,1.24-.4.59-1.08.56-1.67.69a17.94,17.94,0,0,0-12.49,8.86,15,15,0,0,0-2,7.1,8.9,8.9,0,0,1-.25,2.41c-.43,1.45-1.29,1.92-2.83,1.49a18.49,18.49,0,0,1-2-.76,37.35,37.35,0,0,0-29.63-.25c-1.6.64-3.16,1.38-4.72,2.12-1.17.56-1.65.3-1.47-.91.47-3.12.73-6.3,1.89-9.29a20.61,20.61,0,0,0,1.49-9.67,12,12,0,0,0-4.44-8.35c-4.42-3.66-9.83-5.1-15.38-6.18a129.69,129.69,0,0,0-19.24-2.29,151.25,151.25,0,0,0-15.79.1,144.89,144.89,0,0,0-15.15,1.62c-5.6,1-10.89,2.68-15.33,6.27a20.23,20.23,0,0,0-7.59,12.19,76.35,76.35,0,0,0-.72,18.5,62.64,62.64,0,0,0,1.4,10,20,20,0,0,0,2.57,6.42,12.61,12.61,0,0,0,4.21,4.23c.36.22,1,.4.84.87s-.8.41-1.27.43c-2,.11-4-.18-6,.19a158.27,158.27,0,0,0-16,1.4,146.83,146.83,0,0,0-16.13,3.16c-1.05.26-1.37.76-1,1.76.85,2.54.34,2.6,3.4,1.86a139.59,139.59,0,0,1,23.47-3.74c4.27-.28,8.54-.55,12.83-.47a162.2,162.2,0,0,1,19.32,1.49l1.32.21c2.31.34,2.3.34,2.76-1.83a5.19,5.19,0,0,1,.52-1.72c1.37-.61,2.8-.17,4.17-.07,5.34.38,10.66.92,16,1.45a104.67,104.67,0,0,0,14.16.47,27.46,27.46,0,0,0,11.62-2.67,18.08,18.08,0,0,0,8.74-9,12.49,12.49,0,0,1,5.52-6c4.83-2.77,9.85-5,15.52-5.67,8.24-1,14.88,1.8,20.2,7.71a19.1,19.1,0,0,1,4.1,7.83c2.41,8.64,11.25,15.26,20.54,15.62a36.77,36.77,0,0,1,5,.17c.5.49.23,1.05.09,1.56a115.6,115.6,0,0,1-9.66,25.08,78.68,78.68,0,0,1-17.45,22.21,83.81,83.81,0,0,1-27.42,15.69,129.77,129.77,0,0,1-27.41,6.35,94.62,94.62,0,0,1-16.31.52,104.06,104.06,0,0,1-35.81-8.48,221.32,221.32,0,0,1-22.09-11.52c-5.3-3-10.55-6.1-15.65-9.42-2.36-1.53-4.73-3.06-7-4.77-.55-.42-1.19-.83-1.74-.12s.1,1.1.58,1.48c7.39,5.86,14.87,11.62,22.73,16.9a154,154,0,0,0,21,12.08,99.16,99.16,0,0,0,29.28,8.76,90.41,90.41,0,0,0,17.1.45c5.45-.35,10.82-1.15,16.18-2,3.43-.56,4.65.07,5.84,3.22a116.93,116.93,0,0,0,7.13,15.88,92,92,0,0,0,13.28,18.55c4.12,4.39,8.6,8.44,13,12.55,8.74,8.13,17.41,16.33,25.88,24.71a107,107,0,0,1,19,25.91c2.86,5.35,4.71,11.07,6.6,16.77,1.24,3.74,2.31,7.53,3.37,11.33a2.1,2.1,0,0,1,.12,1.5,4.74,4.74,0,0,1-2,1.26,208.85,208.85,0,0,1-36,15,211.38,211.38,0,0,1-34.71,7.65Q293.54,458.66,283.59,459.08Z"/><path class="cls-6" d="M353,170.53c3.91-2.6,7.95-5,11.72-7.83,6.5-4.84,12.27-10.32,15.94-17.5,2.66-5.2,4-10.83,5.29-16.46a24.07,24.07,0,0,0,.77-6.21c-.06-2-1.1-2.67-3.09-1.93a25.91,25.91,0,0,0-4.58,2.61c-1.72,1.06-3.39,2.23-5.5,2.51-.16,0-.34,0-.74,0,1.11-1.52,2.1-2.91,3.13-4.27,2.84-3.75,5-7.77,5.58-12.43a27.09,27.09,0,0,0-2.33-14.51,3.9,3.9,0,0,0-1.31-1.74c.44-.6.77,0,1,.16a204.38,204.38,0,0,1,21.15,13.7,200.22,200.22,0,0,1,50.26,53.7,189.59,189.59,0,0,1,12.41,181.53,194.31,194.31,0,0,1-33.22,49.9A204.93,204.93,0,0,1,383,429.64a6.12,6.12,0,0,0-1,.61c-.65.58-.86.14-1.07-.36a1.84,1.84,0,0,1-.67-1.35c-1.51-7.21-4.55-13.93-7.14-20.79a106.62,106.62,0,0,0-7.23-14.56c-1.48-2.62-1.46-2.71,1.54-3.05A107.18,107.18,0,0,0,387.29,386a136,136,0,0,0,17.82-7c8.58-4.05,16.77-8.76,24.88-13.6a69.82,69.82,0,0,0,7.24-5.44,54.65,54.65,0,0,0,15.12-18.87,65.06,65.06,0,0,0,6.49-22.22,74.08,74.08,0,0,0,.46-12.27,123.38,123.38,0,0,0-2.39-18.15c-1.56-7.51-3.34-14.95-6.37-22.07A49.77,49.77,0,0,0,440,250.44c-5.67-5.69-12.49-9.54-20.8-10.07-9.57-.62-18.3,1.65-25.21,8.43-4,4-6.22,8.89-7.57,14.21a67.55,67.55,0,0,0-1.63,20,74.37,74.37,0,0,0,1.57,10.77,28.17,28.17,0,0,1-1.45,16.13c-2.64,6.59-7.44,11.49-13.52,15.3-6.88,4.3-14.53,6.91-22.37,9.07-7.47,2.06-15.07,3.62-22.63,5.33a19,19,0,0,1-11.7-.57,19.64,19.64,0,0,1-8.25-6.92,164.09,164.09,0,0,1-9.11-14.18c-2.44-4.08-4.76-8.22-7-12.39-1.57-2.91-1.08-3.67,2.21-4.61,10.21-2.91,20.28-6.1,29.31-11.72a75,75,0,0,0,21.48-20.12,112.72,112.72,0,0,0,10.84-19.26c.86-1.89,1-1.92,3-1a55,55,0,0,1,17,12.45c2,2.11,1.52,2,3.63.43,1.44-1.08,1.47-1.13.25-2.47a60.63,60.63,0,0,0-18.87-14.1c-3-1.42-3-.91-2-4.44.08-.29.18-.57.26-.86.6-2.09.87-2.28,3.2-2a58.12,58.12,0,0,1,23.14,8c.94.56,1.9,1.11,2.81,1.73s1,.63,2.76-1.69c.57-.72.47-1.2-.28-1.68-1.79-1.14-3.56-2.28-5.43-3.29a60.32,60.32,0,0,0-22.24-7c-1.83-.2-2-.49-1.54-2.22a15.59,15.59,0,0,1,1.13-3.15c.8-.82,1.88-.68,2.88-.69,3.74,0,7.46-.38,11.19-.58a14.43,14.43,0,0,0,7.41-2.65,5.17,5.17,0,0,1,1.37-.78,70.44,70.44,0,0,1,11.43.76c1.24.15,2.48.3,3.7.56,1,.2,1.4-.15,1.57-1.05.55-2.89,1.08-2.64-2.19-3.18s-6.36-.81-9.55-1.08a2.32,2.32,0,0,1-1.16-.26c-.39-.45-.13-.89.07-1.31a44.45,44.45,0,0,0,3.83-18.33,42,42,0,0,0-1.22-11.44c-1.79-6.76-6.13-11.36-12.94-13.79a45.29,45.29,0,0,0-12.84-2.34c-3.37-.19-6.8,0-10.1-1C353.9,171.2,353.24,171.21,353,170.53Z"/><path class="cls-6" d="M348.74,79.15c-7.57,7.58-17.26,11.64-27.4,14.85-9.17,2.91-18.64,3.64-28.26,3.51-15.67-.22-31.35-.07-47,.7a167.59,167.59,0,0,0-40.38,6.53A124.12,124.12,0,0,0,164.4,126a10,10,0,0,1-10,1.75,33,33,0,0,0-18.45-.65,27,27,0,0,0-20.5,23c-1,8.73,1.78,16.41,6.64,23.58.92,1.36,1.91,2.67,2.86,4a5.1,5.1,0,0,1,.83,4.26A174.31,174.31,0,0,0,121.53,213a158.1,158.1,0,0,0,1.35,28.76,169.27,169.27,0,0,0,12.6,44.15c6.2,14.3,14,27.69,24.36,39.65,2.59,3,5,6.11,7.53,9.15.43.51.56.75-.17,1.09-9.8,4.53-17.25,11.69-24,19.66-8.13,9.64-13.73,20.59-18.35,32.06-.93,2.3-1.79,4.63-2.68,6.95-1.55-.91-2.51-2.38-3.65-3.65A193.61,193.61,0,0,1,82.2,332.7a189.08,189.08,0,0,1,1-143A192.75,192.75,0,0,1,117.73,135q38.1-42.58,93.81-59.95a207.45,207.45,0,0,1,37-7.84,215.65,215.65,0,0,1,99.21,11.33C348.14,78.68,348.6,78.69,348.74,79.15Z"/><path d="M361.16,228.56c-.39,1.22-.71,2.47-1.17,3.67-.35.9-.09,1.12.85,1.21a58.22,58.22,0,0,1,14.65,3.38,65.88,65.88,0,0,1,14.2,7.34c.7.47.85.81.27,1.47-.83.94-1.58,2-2.42,3a60.58,60.58,0,0,0-12.24-6.69,57.74,57.74,0,0,0-15.88-3.86c-.9-.08-1.25.16-1.43,1a20.71,20.71,0,0,1-1,3.32c-.36.94-.12,1.36.86,1.79a60.08,60.08,0,0,1,19.82,14.12c2.09,2.23,2.08,2.24-.29,4.11-1.53,1.22-1.54,1.22-2.86-.23a57,57,0,0,0-18.32-13.49c-.76-.35-1-.34-1.41.5a106.09,106.09,0,0,1-13.52,23.17,75.43,75.43,0,0,1-32.63,23.7,139.35,139.35,0,0,1-17,5.37c-1.87.46-2.29,1.35-1.39,3.15,1.63,3.27,3.46,6.44,5.31,9.6A207.15,207.15,0,0,0,306.71,332c3.09,4.23,7,7.31,12.58,7.83a27.13,27.13,0,0,0,8.88-.92c8.35-2,16.8-3.59,25-6.15,7.53-2.36,14.87-5.15,21.13-9.94,10.14-7.77,14-17.83,11.51-30-2.16-10.82-2.26-21.58,1-32.21,3.65-12,12.8-19.08,25.79-20.43,10.29-1.08,18.94,2.12,26.32,8.85s11.7,15,14.5,24.1c4,12.95,6.65,26.13,6.23,39.7-.44,14.57-4.74,27.94-14.19,39.59a57.68,57.68,0,0,1-11.29,10.3c-11.34,8.18-23.76,14.56-36.69,20a105.68,105.68,0,0,1-31.57,7.92c-.82.08-.89.26-.51.9.78,1.34,1.52,2.7,2.26,4.06a144,144,0,0,1,13.19,33.67c.05.21.07.42.11.64a1.45,1.45,0,0,1-1,1.59c-1.31.59-2.41,1.58-3.85,1.95-1.55-5.08-3.08-10.15-4.64-15.22-4.88-15.82-13.94-29.24-25.75-41.08-10.61-10.62-21.75-20.74-32.71-31a97.89,97.89,0,0,1-24-35.48c-.69-1.71-1.29-3.46-2-5.15-.83-1.92-1.77-2.51-4-2.26-3.14.37-6.26.93-9.39,1.37A92.11,92.11,0,0,1,225.77,299c-12.16-4.83-23.14-11.53-33.62-19-5.75-4.13-11.33-8.45-16.86-12.83-.53-.42-1.24-.82-.93-1.66s1.36-1.12,2.3-.41a168.72,168.72,0,0,0,16.6,10.75c9,5.23,17.88,10.62,27.49,14.79,14.45,6.26,29.56,9.64,45.45,8.78,19.47-1.07,37.81-5.84,54.09-16.53,12.24-8,20.88-18.95,27.08-31.73a120.29,120.29,0,0,0,8-22.34,1.2,1.2,0,0,0,0-.38c.09-.65.67-.76,1.16-.89a5.93,5.93,0,0,1,3.81.22C360.77,227.84,361.24,228,361.16,228.56Z"/><path class="cls-6" d="M349.3,46.3c3.93-4.66,7.85-9.24,11.7-13.89a1.67,1.67,0,0,1,2.22-.59c1.37.52,2.79.91,4.19,1.33.62.19.91.36.67,1.14q-3.93,13-7.74,26c-.19.62-.32.85-1.07.58a38,38,0,0,0-4.44-1.38c-1-.24-.86-.7-.64-1.37q2.06-6.48,4.08-13a.83.83,0,0,0,0-.7l-4.7,5.26c-1,1.14-2,2.26-3,3.42a1.38,1.38,0,0,1-1.81.52A31.31,31.31,0,0,0,345,52.42,1.32,1.32,0,0,1,343.88,51c-.22-3.82-.52-7.65-1-11.52l-2.16,5.7c-1,2.6-2,5.2-2.93,7.82-.26.73-.55.89-1.32.61-1.46-.53-2.95-1-4.45-1.4-.69-.19-.76-.43-.5-1.08q5-12.48,9.87-25c.31-.77.57-1.08,1.49-.73a45.92,45.92,0,0,0,4.45,1.4,1.16,1.16,0,0,1,1,1.28c.22,5.8.49,11.6.74,17.4C349,45.7,348.9,46,349.3,46.3Z"/><path class="cls-7" d="M492.57,171.07l14.82-.74c1.38-.07,2.77-.09,4.15-.22a1.17,1.17,0,0,1,1.38.87c.61,1.42,1.26,2.82,2,4.2.36.69.1.94-.53,1.23L492,186.87l-.48.22c-1.1.45-2.32,1.65-3.19,1.25s-1.08-1.93-1.57-3c-1.17-2.49-1.16-2.47,1.41-3.62q5.93-2.66,11.87-5.36c-.28-.45-.67-.23-1-.22-3.71.07-7.41.15-11.12.28-.77,0-1.21-.15-1.49-.89a27.67,27.67,0,0,0-1.51-3.27,1.41,1.41,0,0,1,.37-2c2.55-2.45,5.05-4.95,7.56-7.44a2,2,0,0,0,.58-.89l-7.88,3c-1.94.76-3.9,1.48-5.81,2.31-.91.39-1.29.21-1.63-.67-.5-1.32-1.15-2.59-1.77-3.87-.27-.55-.33-.84.42-1.11q13.23-4.89,26.42-9.85c.58-.22.87-.15,1.12.42.64,1.5,1.28,3,2,4.45.39.72.06,1.06-.41,1.5q-6.48,6-12.94,12.09a3.71,3.71,0,0,1-.67.4Z"/><path class="cls-7" d="M71.65,111.6c2.7-3.06,5.38-6.13,8.11-9.17a12.77,12.77,0,0,1,2-1.83c2.73-2,5.24-1.94,7.91.12.28.21.57.42.83.65,2.67,2.26,3.48,2.16,3.32,6.34,1.46-.66,3-1.2,4.52-.61a11.46,11.46,0,0,1,6.79,6c.92,2.1.22,4.18-1.08,5.94-2.76,3.78-6.11,7.11-9.16,10.68-.56.65-.86,0-1.17-.21-2.85-2.26-5.68-4.55-8.51-6.83l-13.41-10.8A1.72,1.72,0,0,1,71.65,111.6Z"/><path class="cls-7" d="M291,45.64h-7.57c-.56,0-.69-.47-.93-.81-1.58-2.17-3.25-4.29-4.69-6.54a3.25,3.25,0,0,0-3.35-1.67c-1.84.13-1.85,0-1.86,1.76,0,2-.09,4,0,6,0,1-.36,1.22-1.31,1.15a41,41,0,0,0-4.29-.08c-.92,0-1.22-.22-1.2-1.13.13-7.09.21-14.18.3-21.27,0-1.8,0-3.59,0-5.38,0-.47-.07-1,.72-.93,4.85.27,9.74-.17,14.58.4s6.86,2.82,7,7.35a28.37,28.37,0,0,1-.25,6.51,5.88,5.88,0,0,1-3.32,4.4c-.85.41-.66.77-.24,1.33,2,2.73,4,5.48,5.93,8.22C290.72,45.17,290.85,45.38,291,45.64Z"/><path class="cls-7" d="M117.36,71a6.7,6.7,0,0,1,5.15,2.46c3.18,3.57,6.37,7.14,9.49,10.77a6.56,6.56,0,0,1,.57,8,13.54,13.54,0,0,1-3,3.42c-2.85,2.33-5.74,4.61-8.59,6.94-.56.46-.85.48-1.35-.1q-9-10.3-18.1-20.56c-.49-.55-.52-.83.08-1.3,3-2.33,5.86-4.73,8.84-7A10.89,10.89,0,0,1,117.36,71Z"/><path class="cls-7" d="M249,47.24a13.81,13.81,0,0,1-4.1-.46c-3.66-1-5.91-3.29-6.39-6.94-.53-4.11-1-8.23-1.35-12.35a7.66,7.66,0,0,1,4.67-8.09,17.16,17.16,0,0,1,12.1-1.19,8.13,8.13,0,0,1,6.36,7.39q.58,5.61,1.25,11.2c.54,4.52-1.94,8.16-6.61,9.58A19.48,19.48,0,0,1,249,47.24Z"/><path class="cls-7" d="M496.8,141.18c0,3.82-1.46,6.12-4.11,7.7-3.29,2-6.62,3.87-9.94,5.79-4.79,2.78-9,2.22-12.66-1.78a15.77,15.77,0,0,1-4.31-8.24,7.66,7.66,0,0,1,3.78-8.28q5.56-3.42,11.32-6.57a8.2,8.2,0,0,1,9.29.54A15.4,15.4,0,0,1,496.8,141.18Z"/><path class="cls-7" d="M77.1,148.43a9.25,9.25,0,0,1-5-1.41c-5.7-3.59-11.37-7.22-17.08-10.81-.69-.43-.77-.74-.29-1.37.91-1.21,1.8-2.45,2.59-3.73.46-.74.8-.75,1.52-.29q8,5.13,16.07,10.18c2.34,1.47,3.79,1.21,5.49-.93a9.15,9.15,0,0,0,1.11-1.74c.87-1.86.5-3.15-1.29-4.3-4.48-2.88-9-5.73-13.48-8.59-.37-.23-.76-.46-1.11-.71-.85-.61-2.35-.94-2.43-1.79s1-1.73,1.6-2.55,1-2.38,2-2.46,1.88,1,2.81,1.57l14.16,9c4.7,3,5.82,6.91,3.41,11.85A16.48,16.48,0,0,1,82,146.72,8.79,8.79,0,0,1,77.1,148.43Z"/><path class="cls-8" d="M167,71,165.4,60.12c-.85-5.92-1.69-11.84-2.57-17.75-.11-.74-.05-1.14.76-1.47C165.8,40,168,39,170.14,38a1,1,0,0,1,1.33.31c6.45,6.91,12.89,13.82,19.39,20.68.86.91.79,1.24-.38,1.68-1.46.53-2.85,1.2-4.25,1.87a1,1,0,0,1-1.44-.33c-.88-1.07-1.87-2.06-2.75-3.13a.94.94,0,0,0-1.35-.28c-2.45,1.11-4.92,2.21-7.41,3.25-.69.3-.9.63-.75,1.36.29,1.29.42,2.61.69,3.9.13.65,0,1-.66,1.27C170.72,69.31,168.93,70.15,167,71Z"/><path class="cls-7" d="M408.61,53.73c-1.12,4.53-2.26,9.13-3.42,13.74s-2.28,8.94-3.36,13.43c-.24,1-.47,1.42-1.56.69a43,43,0,0,0-4-2.27c-.66-.34-.88-.66-.62-1.39.42-1.21.67-2.48,1.08-3.69a1,1,0,0,0-.59-1.52c-2.37-1.28-4.7-2.62-7-4a1,1,0,0,0-1.37.17c-1,1-2,1.83-3,2.78a1.17,1.17,0,0,1-1.7.22,43,43,0,0,0-4-2.27c-1-.49-1-.84-.18-1.56,5.75-5,11.46-10,17.19-15,1.41-1.23,2.84-2.46,4.23-3.73a1.15,1.15,0,0,1,1.6-.18c2,1.21,4.06,2.31,6.09,3.47C408.37,52.85,408.94,53,408.61,53.73Z"/><path class="cls-6" d="M155.42,77.44c0,.35-.3.42-.52.56-4.76,3.09-9.53,6.16-14.27,9.28-.82.54-1,0-1.39-.45Q132,76.59,124.8,66.36c-1.68-2.38-1.69-2.4.8-4,4.08-2.67,8.2-5.3,12.28-8,.68-.45,1-.39,1.46.27a36.32,36.32,0,0,0,2.18,3.07c.59.74.36,1.09-.38,1.56-2.77,1.72-5.47,3.54-8.23,5.26-.69.43-.83.74-.28,1.36a19.88,19.88,0,0,1,1.2,1.69c1.32,1.85,1.32,1.85,3.3.57s4.24-2.69,6.31-4.1c.68-.45,1.05-.58,1.54.23a30,30,0,0,0,2.27,3.16c.47.6.32.9-.28,1.28-2.57,1.63-5.08,3.32-7.66,4.93-.72.44-.74.72-.25,1.35a42.74,42.74,0,0,1,2.56,3.6c.42.67.75.6,1.34.22,2.79-1.84,5.62-3.62,8.4-5.46.59-.39.91-.49,1.33.18.77,1.2,1.63,2.34,2.45,3.51Z"/><path class="cls-7" d="M445,86.23l-.87-.66c-2.51-2-5-4.08-7.52-6.16-.58-.48-.92-.63-1.45.08A19.35,19.35,0,0,1,432.84,82c-.64.61-.46.92.14,1.4,2.36,1.88,4.67,3.83,7,5.71.61.49.57.76.06,1.28-.95,1-1.84,2-2.69,3-.48.61-.81.52-1.35.06-2.31-1.93-4.69-3.8-7-5.75-.54-.46-.8-.61-1.31,0-1,1.18-2,2.32-3.05,3.4-.56.58-.39.86.16,1.3,2.52,2,5,4.12,7.54,6.13.75.6.87,1,.13,1.69a32.09,32.09,0,0,0-2.53,2.81c-.43.52-.7.59-1.26.13-4.35-3.61-8.7-7.2-13.11-10.74-.71-.57-.26-.82.07-1.2L426,79.69c2.61-2.92,5.22-5.83,7.81-8.76.47-.53.72-.76,1.42-.17q6.25,5.22,12.62,10.31c.87.69.92,1.11.11,1.86s-1.69,1.87-2.53,2.81C445.31,85.89,445.15,86,445,86.23Z"/><path class="cls-7" d="M224.15,51.25c-5.7.12-9-2.33-10.05-6.93q-1.32-5.68-2.58-11.37c-1-4.64.92-8.18,5.51-10,3.86-1.51,7.95-1.8,12.06-2,.67,0,.84.25.87.81.08,1.32.17,2.64.32,4,.08.73-.22.92-.95,1a61.73,61.73,0,0,0-7.54,1c-3.14.63-4,1.95-3.38,4.93.69,3.17,1.4,6.34,2.15,9.5.62,2.64,2.11,3.54,4.87,3,4-.73,4-.73,3.17-4.49-.29-1.38-.58-2.76-.95-4.11-.22-.81-.06-1.13.86-1.26a39.83,39.83,0,0,0,4.18-.89c.72-.18,1,0,1.19.69.84,3.88,1.72,7.75,2.61,11.62a.76.76,0,0,1-.47,1A35,35,0,0,1,224.15,51.25Z"/><path class="cls-9" d="M446.94,118.39a7.06,7.06,0,0,1-3.69-1.12,24.93,24.93,0,0,1-9.39-10.74c-.32-.68-.23-1.08.49-1.44,1-.5,1.94-1.06,2.86-1.65.65-.42,1-.45,1.36.35a24.53,24.53,0,0,0,4.65,6.37c2.33,2.34,4.4,2.08,6.1-.72a1.91,1.91,0,0,0-.08-2.07c-.9-1.61-1.9-3.17-2.76-4.81s-1.85-3.33-1.3-5.34a5.48,5.48,0,0,1,1.05-2,21.69,21.69,0,0,1,4.83-4.38,5.81,5.81,0,0,1,6.53-.19c3.47,2,5.92,5,8.29,8.08.42.54.77,1.15,1.2,1.69s.44.91-.23,1.34a38,38,0,0,0-3.11,2.21c-.59.47-.89.43-1.32-.2a34.27,34.27,0,0,0-5.24-6.29c-1.37-1.24-2.11-1.36-3.26-.54-2.12,1.5-2.46,2.31-1.55,4,1,1.9,2.16,3.73,3.12,5.64,1.63,3.24,1.28,5-1.36,7.6a22.12,22.12,0,0,1-3.85,3.16A7.05,7.05,0,0,1,446.94,118.39Z"/><path class="cls-6" d="M451.89,125.12a7.84,7.84,0,0,1,3.44-6.71c3.23-2.42,6.48-4.83,9.76-7.18,4.77-3.42,9.12-3,13.13,1.25a34.7,34.7,0,0,1,5.38,7.77c.3.56.31.89-.35,1.2-1.24.59-2.46,1.22-3.64,1.9-.75.43-1.09.16-1.43-.48a34.14,34.14,0,0,0-3.62-5.37c-1.91-2.32-3.36-2.54-5.79-.8q-4.23,3-8.39,6.16c-2.13,1.6-2.32,3-.73,5.17a35,35,0,0,0,4.83,5.13c.5.44.58.7.06,1.19-1.06,1-2.05,2-3.06,3.06-.3.31-.52.5-1,.12-3.22-2.8-6.27-5.72-8-9.66A6.91,6.91,0,0,1,451.89,125.12Z"/><path class="cls-7" d="M54.74,190a9.37,9.37,0,0,1-3.13-.65l-11.22-4.18c-5.34-2-7.3-5.68-5.81-11a32.91,32.91,0,0,1,4.31-8.91c.33-.51.57-.6,1.13-.27,1.24.76,2.52,1.46,3.81,2.13.56.3.61.54.28,1.08a37.64,37.64,0,0,0-3.15,6.2c-.94,2.48-.41,3.79,2.14,4.8,3.42,1.35,6.88,2.62,10.35,3.84,2.34.82,3.7.2,4.72-2a32.7,32.7,0,0,0,2.1-6.6c.17-.79.5-.95,1.28-.76,1.33.34,2.68.63,4,.86.6.1.74.34.64.85-.82,4-1.8,7.95-4.36,11.31A8.1,8.1,0,0,1,54.74,190Z"/><path class="cls-7" d="M332.7,29c-2.05-.37-4.13-.68-6.16-1.15-1-.23-1.22.09-1.39.91-1.32,6.7-2.71,13.39-4,20.1-.2,1-.57,1.36-1.65,1.09a35,35,0,0,0-3.94-.72c-1.05-.13-1.36-.48-1.13-1.53,1.41-6.73,2.71-13.48,4.14-20.2.21-1-.12-1.17-1-1.31-1.93-.31-3.85-.71-5.78-1-.72-.11-1-.35-.82-1.08.31-1.25.54-2.51.77-3.77.12-.67.31-1,1.2-.84,6.86,1.32,13.73,2.58,20.6,3.84.63.11,1,.19.76.94-.36,1.36-.61,2.75-.85,4.14C333.39,28.82,333.23,29.06,332.7,29Z"/><path class="cls-7" d="M76.83,155.58l-.22.44Q72.8,163.13,69,170.26c-.36.67-.62.89-1.44.48q-12.42-6.11-24.9-12.1c-.75-.36-.82-.66-.43-1.33a41.11,41.11,0,0,0,2.11-4c.41-.93.86-.76,1.61-.4,6.34,3.12,12.71,6.18,19,9.31.94.46,1.37.43,1.86-.55,1.36-2.73,2.86-5.4,4.25-8.11.39-.76.74-.85,1.49-.43,1.19.66,2.46,1.21,3.68,1.82C76.55,155.08,76.94,155.13,76.83,155.58Z"/><path class="cls-6" d="M213,53.16c0,.31-.26.36-.51.44L196,58.84c-.75.24-.79-.23-.95-.69-1.84-5.34-3.7-10.68-5.54-16-1.1-3.15-2.15-6.32-3.29-9.45-.27-.73-.11-1,.6-1.18,1.53-.44,3.06-.92,4.56-1.46.76-.27,1.08-.11,1.33.63,2.24,6.56,4.53,13.1,6.74,19.67.31.92.56,1.22,1.63.85,3-1,6.08-1.93,9.11-2.93.77-.26,1.09-.15,1.32.62C212,50.31,212.49,51.71,213,53.16Z"/><path class="cls-7" d="M384.76,41c-.15.31-.25.54-.36.77q-5.79,12-11.54,24.07c-.42.89-.83,1-1.69.56-1.26-.63-2.55-1.22-3.87-1.73-.93-.35-1.06-.73-.63-1.61,2.93-6,5.8-12,8.68-18,1-2,2-4,2.9-6,.31-.66.61-.91,1.4-.52,1.46.73,3,1.35,4.47,2C384.4,40.58,384.7,40.65,384.76,41Z"/><path class="cls-9" d="M295.66,45c.91-8,1.84-16.3,2.81-24.61.28-2.39.35-2.38,2.86-2.11.93.1,1.86.24,2.79.28s1.35.36,1.22,1.39c-.63,5.08-1.17,10.18-1.75,15.27-.41,3.6-.87,7.2-1.19,10.81-.09,1.07-.5,1.26-1.47,1.11-1.36-.2-2.74-.33-4.11-.46S295.55,46.54,295.66,45Z"/><path class="cls-6" d="M376.61,91.88a4.2,4.2,0,0,0-4.1.83,20.74,20.74,0,0,0-3.78,3.94c-1.48,1.76-3,3.47-4.67,5.09a17.4,17.4,0,0,1-7.18,4.31c4.37-6.51,6.86-13.34,6.63-20.93a110.62,110.62,0,0,1,10.88,5.33C375.17,90.86,376.15,91,376.61,91.88Z"/><path class="cls-10" d="M361.16,228.56a5.4,5.4,0,0,0-5.76-.21,25,25,0,0,1-18.53-5,19,19,0,0,1-7.36-10.72c-2.1-9.09-13-17.8-25.65-15.14a44.42,44.42,0,0,0-15.75,6.75,8,8,0,0,0-2.86,3.63c-3.43,7.87-9.83,11.74-18.46,12.57-7.15.68-14.26,0-21.36-.68-5.15-.49-10.3-.9-15.45-1.34a4.71,4.71,0,0,1-3,.29c-4.65-.42-9.33-.46-14-1a9.17,9.17,0,0,1-2-.27c-3.17-1.11-6.46-1.09-9.76-1-.6,0-1.27.12-1.72-.46,2.26-.34,4.54-.08,7-.2a16.87,16.87,0,0,1-3.88-3c-2.63-3-3.77-6.62-4.49-10.39a78.12,78.12,0,0,1-.55-25.25c1.18-8.83,6.71-14.63,15.14-18.05,4.36-1.77,9-2.42,13.64-3a139.61,139.61,0,0,1,25.52-1c8.68.48,17.33,1.36,25.71,3.81a26,26,0,0,1,8.26,3.84c5.53,4.07,6.81,9.54,5.23,15.68-1.05,4.1-2.44,8.1-2.89,12.32,0,.47-.11.93-.18,1.53,1.78-.81,3.42-1.6,5.11-2.31a37.8,37.8,0,0,1,31,.1c3.37,1.47,4,1.05,4.16-2.49a17.83,17.83,0,0,1,16-16.92,4.67,4.67,0,0,0,.64-.18c1.36,1.25,3,1.13,4.64.82,1.18-.22,2.32-.55,3.48-.84a19.38,19.38,0,0,0,6.53,1.18A78.09,78.09,0,0,1,374,173.24c10,2.37,15.9,8.56,17.32,18.35a49.2,49.2,0,0,1-2.46,24.83c-.38,1-.84,2-1.26,3a8.52,8.52,0,0,1-3.72,4.64c-3.82,3.17-8.45,3.74-13.24,3.84-2.58.05-5.16.2-7.74.35A2.81,2.81,0,0,0,361.16,228.56Z"/><path class="cls-11" d="M190.56,442.13a130.79,130.79,0,0,0,13,5.15c3.25,1.14,6.51,2.21,9.77,3.31-.76,1.06-2,1.37-3.13,1.87a46.58,46.58,0,0,1-19.61,4.32,11.81,11.81,0,0,1-11.58-8.13,30.34,30.34,0,0,1-1.62-9c0-1.17-.52-2.36,0-3.54a.33.33,0,0,1,.36-.09,61.25,61.25,0,0,1,6.58,3.3A38.92,38.92,0,0,0,190.56,442.13Z"/><path class="cls-6" d="M184.38,439.28c-2.45-.8-4.59-2.21-6.94-3.21a35,35,0,0,1,3.14-13.76c2.26-5.43,5.66-10.22,9.27-14.89,0-.05.14-.05.34-.11C188.67,418.07,186.54,428.68,184.38,439.28Z"/><path class="cls-12" d="M345.41,239.53a22.26,22.26,0,0,1-3.18,6.63,27.61,27.61,0,0,1-13.65,11.06c-7.41,2.63-16,1.3-20.89-6.86-.24-.41-.48-.81-.83-1.37-1.23,1.2-2.35,2.38-3.58,3.46-6.13,5.38-13.47,8-21.69,8.53-14,1-26.42-3.28-37.74-10.88-1.94-1.29-3.82-2.65-5.75-4a4,4,0,0,1,4.49-.2c9.48,5,19.49,8.43,30.31,9.28,7,.55,13.94.19,20.44-2.74,7-3.12,10.77-8.58,12.44-15.56.4-1.66-.25-2.61-2.24-3.41a29.88,29.88,0,0,1-11.32-8.17,25,25,0,0,1-2.9-3.82c-2.75-4.69-1.64-9.17,3.09-12.08,8.69-5.35,17.79-5.68,27.19-1.85a12.34,12.34,0,0,1,5.85,4.1,9.58,9.58,0,0,1,.64,10.24c-2.58,5.3-6.33,9.56-12.25,11.72a4.42,4.42,0,0,0-3.2,4.67,21.37,21.37,0,0,0,2.05,9.05c2.31,4.55,6.33,6.39,11.48,5.28a30.69,30.69,0,0,0,12.63-6.42C339.57,244,342.23,241.66,345.41,239.53Z"/><path class="cls-13" d="M149.93,140.93a12.26,12.26,0,0,1,5.24,1.19c2.19.93,4.33,2,6.57,2.84,1.57.59,1.9,1.76,1,3.5a84,84,0,0,1-4.95,8.76A93.46,93.46,0,0,1,146,172.15c-1.8,1.84-2.83,1.85-4.63,0-4.58-4.72-7.9-10.1-9-16.52-.74-4.18-.24-8.13,3.39-11.12a15.47,15.47,0,0,1,8.33-3.13C146.1,141.15,148.2,141.06,149.93,140.93Z"/><path class="cls-14" d="M171.53,253.75c-.3,0-.34-.22-.46-.38-2.64-3.5-2.64-3.49,1.31-5.57a240.5,240.5,0,0,1,57.14-21.14c1.35-.32,1.79-.06,1.92,1.2.11,1,.92,2.37.5,3s-2,.64-3.05.89a233.42,233.42,0,0,0-56.66,21.61Z"/><path class="cls-14" d="M199.55,216l7.09.07a2.43,2.43,0,0,1,.66,0c7.38,2.37,15.12,1.61,22.68,2.37-.2,1.18-.43,2.35-.59,3.53-.1.74-.48.82-1.18.7a145.36,145.36,0,0,0-28.11-1.91,142.07,142.07,0,0,0-32.19,4.6c-1,.26-1.48.2-1.61-.86a11.12,11.12,0,0,0-.47-1.73c-.53-1.77-.54-1.78,1.38-2.26A150.66,150.66,0,0,1,199.55,216Z"/><path class="cls-14" d="M234.49,242.28c-.18.34-.59.4-.94.53a76.1,76.1,0,0,0-22.23,13,74.08,74.08,0,0,0-13.83,15.35c-.58.86-1,1-1.81.34s-2.61-1-2.83-1.95,1.09-2,1.78-3a80.5,80.5,0,0,1,36.84-28.17c1.13-.44,1.52-.23,1.82.83S234.07,241.22,234.49,242.28Z"/><path class="cls-14" d="M383.91,224a27.63,27.63,0,0,0,3.72-4.64,99.34,99.34,0,0,1,13.1,1.52c.72.13.88.33.69,1a14.59,14.59,0,0,0-.6,2.74c-.09.95-.41,1.18-1.41,1A97.07,97.07,0,0,0,383.91,224Z"/><path class="cls-6" d="M319,344.34a214.61,214.61,0,0,0,24.82-3.66,102,102,0,0,0,29.33-10.8c8-4.62,14.33-10.69,17.29-19.44a37.35,37.35,0,0,0,1.06-18.62c-1.62-9.48-2-18.94.45-28.35,1.64-6.27,4.8-11.67,10.94-14.82,10.16-5.21,25-5.16,34.49,7.22a70.79,70.79,0,0,1,12.88,28.79A113.88,113.88,0,0,1,453,314.82c-1.06,19.25-9.34,34.81-26.45,45.56-10.33,6.5-20.88,12.63-32.4,17.08a163.63,163.63,0,0,1-30.66,8.46,3,3,0,0,1-3.19-1.08c-8.87-11.52-19.92-21.06-30.74-30.8C326,350.89,322.59,347.68,319,344.34Z"/><path class="cls-15" d="M94.9,112.57a6.18,6.18,0,0,1,3.59,2.59c.79,1,.13,2-.57,2.91-.87,1.09-1.82,2.11-2.7,3.18-.36.44-.62.46-1.06.09-1.34-1.13-2.73-2.21-4.09-3.31-.34-.27-.74-.49-.24-1,1.11-1.17,2.15-2.39,3.24-3.58A2.72,2.72,0,0,1,94.9,112.57Z"/><path class="cls-16" d="M88.93,109.39a3.22,3.22,0,0,1-.72,1.61c-.47.56-1,1.11-1.46,1.67-1.42,1.61-1.42,1.6-3.14.16-.91-.76-1.83-1.5-2.77-2.22-.51-.38-.64-.7-.14-1.21.82-.84,1.53-1.77,2.35-2.62,1.13-1.19,2-1.24,3.36-.25.59.45,1.17.92,1.74,1.39A2.11,2.11,0,0,1,88.93,109.39Z"/><path class="cls-16" d="M272.86,26.82c0-1.15,0-2.3,0-3.45,0-.48.06-.81.72-.79,1.91.08,3.83.05,5.73.19a2.26,2.26,0,0,1,2.42,2.5c0,1.06,0,2.13,0,3.19A2.33,2.33,0,0,1,279.27,31c-1.95.1-3.91,0-5.87,0-.59,0-.63-.33-.62-.75,0-1.15,0-2.3,0-3.45Z"/><path class="cls-5" d="M126.58,89a2.36,2.36,0,0,1-.61,1.7,31,31,0,0,1-4,3.45c-.44.39-.7.09-1-.22q-5.31-6-10.62-12c-.33-.38-.34-.62.07-.94a37.3,37.3,0,0,1,3.75-2.88c1.55-.9,2.76-.8,4,.5,2.6,2.86,5.14,5.79,7.68,8.7A2.55,2.55,0,0,1,126.58,89Z"/><path class="cls-5" d="M254.71,36.94c.21,2.61-.79,3.89-3.5,4.35a10.58,10.58,0,0,1-2.38.19c-2.26-.1-3.44-1.1-3.7-3.25q-.66-5.32-1.17-10.67c-.19-2,.71-3.17,2.8-3.76a9.59,9.59,0,0,1,2.5-.33c2.87-.06,4.05,1,4.36,3.7Q254.18,32,254.71,36.94Z"/><path class="cls-5" d="M490.38,140.77a3.06,3.06,0,0,1-1.6,2.79c-3.38,2-6.76,4-10.17,5.88a3.16,3.16,0,0,1-3.93-.44,7.63,7.63,0,0,1-2.45-3.88,2.93,2.93,0,0,1,1.38-3.54q5-3,10.17-5.89a3.28,3.28,0,0,1,4.15.54A7.25,7.25,0,0,1,490.38,140.77Z"/><path class="cls-17" d="M169.62,45.11c2.55,2.88,5.09,5.77,7.64,8.64.29.33.2.51-.17.67-1.7.75-3.39,1.5-5.08,2.27-.61.29-.66-.08-.73-.5q-.94-5.47-1.88-10.95Z"/><path class="cls-18" d="M401.72,56.3l-3.28,11.44-5.45-3c-.4-.23-.29-.44,0-.7l8.55-7.86Z"/><path class="cls-6" d="M255.58,211.48a233.28,233.28,0,0,1-26.41-1.74c-5.35-.63-10.69-1.35-16-2.07a4.76,4.76,0,0,1-4.39-3.7,67.47,67.47,0,0,1-2.15-13.9,48.85,48.85,0,0,1,.77-11.32c1.23-6.43,5.45-10.15,11.83-11.87,4.31-1.16,8.79-1.39,13.22-1.74a184.25,184.25,0,0,1,21.15-.26,95,95,0,0,1,21.86,3.34,15.58,15.58,0,0,1,3.2,1.27,6.27,6.27,0,0,1,3.56,5.89c0,2.62-.78,5.13-1.26,7.69-1.1,5.87-2.1,11.76-3.24,17.62-1.31,6.75-5.59,10.22-12.74,10.52C261.83,211.35,258.71,211.53,255.58,211.48Z"/><path class="cls-6" d="M369.36,218.36c-2.91-.08-5.35.13-7.81-.17s-5.15.38-7.73.48a19.78,19.78,0,0,1-8.28-1,10.73,10.73,0,0,1-7.27-9.16c-.57-4.28-.85-8.57-1-12.88a80.29,80.29,0,0,0-1.07-11.58c-.29-1.6.13-2.26,1.81-2.46,3.1-.35,6.21-.58,9.32-.84A124.72,124.72,0,0,1,362.4,180,44.48,44.48,0,0,1,373,181.44c5.91,1.66,9.27,5.44,10,11.21a46.26,46.26,0,0,1-1.38,19.15c-.68,2.34-1.71,4.51-4.16,5.69a8.44,8.44,0,0,1-3.73.87C372.11,218.35,370.5,218.36,369.36,218.36Z"/><path class="cls-6" d="M308.48,210.73a21.74,21.74,0,0,1,9.33,2.05c3.81,1.94,4.71,4.76,2.49,8.29a20.52,20.52,0,0,1-10.44,8.43,6.58,6.58,0,0,1-7.67-1.61,72.76,72.76,0,0,0-5.72-5.38c-.26-.23-.49-.49-.74-.74-4.08-4-1.26-8.24,2.39-9.5A30.85,30.85,0,0,1,308.48,210.73Z"/><path class="cls-14" d="M262.11,181.58c-.08,5.22-.59,10.37-2.64,15.29-2.49,6-7.19,7.16-13,5.13a6.4,6.4,0,0,1-4.38-5.38c-.91-6.08-1.08-12.15.77-18.13a19.32,19.32,0,0,1,2.6-5.44,6.4,6.4,0,0,1,5.48-2.9,18,18,0,0,1,5,.63c3.93,1.07,6,3.8,6.17,8C262.14,179.7,262.11,180.64,262.11,181.58Z"/><path class="cls-19" d="M364.5,195.21a42.25,42.25,0,0,1-3.15,15.87,7.18,7.18,0,0,1-6.86,4.84c-4.42.13-7-2-7.69-6.2-1.32-7.91.2-15.36,3.73-22.52,1-2,2.26-2.63,4.53-2.28a39.81,39.81,0,0,1,4.74.83c2.77.78,4.18,2.35,4.44,5.11C364.37,192.3,364.41,193.76,364.5,195.21Z"/></svg>