<svg xmlns="http://www.w3.org/2000/svg" xmlns:xlink="http://www.w3.org/1999/xlink" width="500" zoomAndPan="magnify" viewBox="0 0 375 374.999991" height="500" preserveAspectRatio="xMidYMid meet" version="1.0"><defs><g/><clipPath id="id1"><path d="M 56.398438 233.664062 L 318.757812 233.664062 L 318.757812 332.664062 L 56.398438 332.664062 Z M 56.398438 233.664062 " clip-rule="nonzero"/></clipPath></defs><g clip-path="url(#id1)"><path fill="#ffffff" d="M 58.316406 199.652344 C 59.453125 199.652344 60.375 200.574219 60.375 201.710938 C 60.375 271.898438 117.292969 328.796875 187.507812 328.796875 C 257.722656 328.796875 314.640625 271.898438 314.640625 201.710938 C 314.640625 200.574219 315.5625 199.652344 316.699219 199.652344 C 317.835938 199.652344 318.757812 200.574219 318.757812 201.710938 C 318.757812 274.171875 259.996094 332.914062 187.507812 332.914062 C 115.019531 332.914062 56.257812 274.171875 56.257812 201.710938 C 56.257812 200.574219 57.179688 199.652344 58.316406 199.652344 Z M 58.316406 199.652344 " fill-opacity="1" fill-rule="evenodd"/></g><g fill="#ffffff" fill-opacity="1"><g transform="translate(59.409353, 191.259232)"><g><path d="M 6.65625 -27.765625 C 6.664062 -27.867188 6.675781 -27.972656 6.6875 -28.078125 L 6.953125 -28.0625 C 6.972656 -27.570312 6.957031 -27.03125 6.90625 -26.4375 C 6.851562 -25.851562 6.660156 -25.144531 6.328125 -24.3125 C 5.992188 -23.476562 5.445312 -22.738281 4.6875 -22.09375 C 3.132812 -20.789062 1.195312 -20.09375 -1.125 -20 L -12.640625 -19.4375 L -1.09375 -13.046875 C -0.09375 -12.472656 0.75 -12.101562 1.4375 -11.9375 L 1.40625 -11.6875 L -13.59375 -6.359375 L -0.96875 -4.09375 C -0.695312 -4.03125 -0.4375 -4.09375 -0.1875 -4.28125 C 0.0507812 -4.476562 0.179688 -4.703125 0.203125 -4.953125 L 0.25 -5.375 L 0.484375 -5.359375 L 0.03125 -0.390625 L -0.21875 -0.40625 L -0.171875 -0.8125 C -0.140625 -1.269531 -0.25 -1.6875 -0.5 -2.0625 C -0.75 -2.4375 -1.101562 -2.6875 -1.5625 -2.8125 L -15.375 -5.6875 C -18.457031 -4.445312 -20.09375 -2.78125 -20.28125 -0.6875 C -20.300781 -0.5 -20.3125 -0.300781 -20.3125 -0.09375 L -20.578125 -0.109375 C -20.648438 -0.578125 -20.671875 -0.957031 -20.640625 -1.25 C -20.617188 -1.539062 -20.578125 -1.859375 -20.515625 -2.203125 C -20.460938 -2.546875 -20.347656 -2.9375 -20.171875 -3.375 C -19.992188 -3.820312 -19.753906 -4.238281 -19.453125 -4.625 C -19.148438 -5.019531 -18.84375 -5.359375 -18.53125 -5.640625 C -18.226562 -5.921875 -17.890625 -6.179688 -17.515625 -6.421875 C -16.867188 -6.828125 -16.253906 -7.140625 -15.671875 -7.359375 L -1.75 -12.328125 L -16.5625 -20.59375 L -16.546875 -20.828125 L -1.1875 -21.84375 C 1.238281 -21.976562 3.113281 -22.582031 4.4375 -23.65625 C 5.769531 -24.738281 6.507812 -26.109375 6.65625 -27.765625 Z M 6.65625 -27.765625 "/></g></g></g><g fill="#ffffff" fill-opacity="1"><g transform="translate(61.574938, 168.572116)"><g><path d="M 4.234375 -17.890625 L 4.296875 -18.109375 L 4.546875 -18.046875 L 3.125 -12.4375 L 2.875 -12.5 L 2.9375 -12.734375 C 3.019531 -13.078125 2.972656 -13.363281 2.796875 -13.59375 C 2.617188 -13.832031 2.429688 -13.972656 2.234375 -14.015625 C 2.035156 -14.066406 1.828125 -14.082031 1.609375 -14.0625 L -3.03125 -13.53125 L -4.71875 -6.796875 L -0.875 -4.078125 C -0.695312 -3.953125 -0.507812 -3.863281 -0.3125 -3.8125 C -0.125 -3.769531 0.0976562 -3.804688 0.359375 -3.921875 C 0.628906 -4.046875 0.804688 -4.28125 0.890625 -4.625 L 0.953125 -4.84375 L 1.203125 -4.78125 L -0.046875 0.21875 L -0.296875 0.15625 L -0.25 -0.0625 C -0.144531 -0.476562 -0.175781 -0.914062 -0.34375 -1.375 C -0.507812 -1.84375 -0.816406 -2.269531 -1.265625 -2.65625 L -13.25 -11.65625 C -14.445312 -12.613281 -15.226562 -13.132812 -15.59375 -13.21875 L -15.546875 -13.4375 L 2.125 -16.109375 C 2.695312 -16.210938 3.164062 -16.429688 3.53125 -16.765625 C 3.894531 -17.097656 4.128906 -17.472656 4.234375 -17.890625 Z M -5.390625 -7.3125 L -3.84375 -13.4375 L -12.59375 -12.453125 Z M -5.390625 -7.3125 "/></g></g></g><g fill="#ffffff" fill-opacity="1"><g transform="translate(65.652748, 151.779372)"><g><path d="M -9.21875 -24.203125 L -9.375 -23.8125 C -9.507812 -23.488281 -9.519531 -23.160156 -9.40625 -22.828125 C -9.289062 -22.492188 -9.082031 -22.25 -8.78125 -22.09375 L 0.625 -18.234375 C 2.476562 -17.472656 3.734375 -16.269531 4.390625 -14.625 C 5.054688 -12.988281 4.988281 -11.195312 4.1875 -9.25 C 3.382812 -7.300781 2.164062 -5.953125 0.53125 -5.203125 C -1.09375 -4.453125 -2.832031 -4.457031 -4.6875 -5.21875 L -14.046875 -9.0625 C -14.523438 -9.257812 -14.957031 -9.203125 -15.34375 -8.890625 C -15.507812 -8.734375 -15.644531 -8.539062 -15.75 -8.3125 L -15.90625 -7.921875 L -16.15625 -8.015625 L -14.171875 -12.84375 L -13.921875 -12.75 L -14.078125 -12.375 C -14.222656 -12.019531 -14.238281 -11.675781 -14.125 -11.34375 C -14.007812 -11.019531 -13.785156 -10.78125 -13.453125 -10.625 L -4.375 -6.890625 C -2.644531 -6.179688 -1.0625 -6.078125 0.375 -6.578125 C 1.8125 -7.078125 2.847656 -8.101562 3.484375 -9.65625 C 4.117188 -11.207031 4.132812 -12.671875 3.53125 -14.046875 C 2.925781 -15.429688 1.804688 -16.457031 0.171875 -17.125 L -9.203125 -20.984375 C -9.546875 -21.097656 -9.875 -21.082031 -10.1875 -20.9375 C -10.5 -20.789062 -10.722656 -20.539062 -10.859375 -20.1875 L -11.03125 -19.796875 L -11.28125 -19.890625 L -9.46875 -24.296875 Z M -9.21875 -24.203125 "/></g></g></g><g fill="#ffffff" fill-opacity="1"><g transform="translate(72.954649, 134.062349)"><g><path d="M -11.390625 -14.5625 L -12.21875 -13.15625 L 1 -5.4375 C 1.394531 -5.207031 1.804688 -5.144531 2.234375 -5.25 C 2.660156 -5.363281 2.992188 -5.617188 3.234375 -6.015625 L 3.390625 -6.28125 L 3.625 -6.1875 L 0.78125 -1.328125 L 0.5625 -1.453125 L 0.734375 -1.75 C 0.953125 -2.132812 1.003906 -2.539062 0.890625 -2.96875 C 0.785156 -3.394531 0.550781 -3.726562 0.1875 -3.96875 L -12.125 -11.171875 C -12.519531 -11.378906 -12.929688 -11.425781 -13.359375 -11.3125 C -13.796875 -11.207031 -14.125 -10.960938 -14.34375 -10.578125 L -14.515625 -10.28125 L -14.75 -10.40625 L -11.25 -16.40625 C -10.46875 -17.738281 -9.472656 -18.570312 -8.265625 -18.90625 C -7.066406 -19.238281 -5.867188 -19.054688 -4.671875 -18.359375 C -3.484375 -17.660156 -2.675781 -16.691406 -2.25 -15.453125 C -1.820312 -14.222656 -1.910156 -13.085938 -2.515625 -12.046875 C -2.273438 -12.203125 -1.914062 -12.34375 -1.4375 -12.46875 C -0.96875 -12.601562 -0.5 -12.691406 -0.03125 -12.734375 C 2.539062 -12.929688 4.144531 -13.097656 4.78125 -13.234375 C 5.425781 -13.378906 5.875 -13.484375 6.125 -13.546875 C 6.375 -13.617188 6.628906 -13.707031 6.890625 -13.8125 C 7.160156 -13.925781 7.390625 -14.050781 7.578125 -14.1875 C 8.046875 -14.5 8.421875 -14.894531 8.703125 -15.375 L 8.921875 -15.25 L 8.21875 -14.046875 C 7.84375 -13.398438 7.378906 -12.867188 6.828125 -12.453125 C 6.273438 -12.046875 5.796875 -11.773438 5.390625 -11.640625 C 4.984375 -11.503906 4.609375 -11.40625 4.265625 -11.34375 C 3.921875 -11.28125 2.832031 -11.179688 1 -11.046875 C -0.820312 -10.910156 -1.867188 -10.820312 -2.140625 -10.78125 C -2.410156 -10.738281 -2.679688 -10.6875 -2.953125 -10.625 C -3.722656 -10.445312 -4.25 -10.117188 -4.53125 -9.640625 L -4.765625 -9.765625 C -4.679688 -9.867188 -4.582031 -10.019531 -4.46875 -10.21875 C -4.351562 -10.414062 -4.222656 -10.65625 -4.078125 -10.9375 C -3.046875 -12.800781 -3.132812 -14.410156 -4.34375 -15.765625 C -4.59375 -16.023438 -4.84375 -16.226562 -5.09375 -16.375 C -5.351562 -16.53125 -5.519531 -16.628906 -5.59375 -16.671875 C -6.601562 -17.222656 -7.550781 -17.429688 -8.4375 -17.296875 C -9.332031 -17.160156 -10.046875 -16.691406 -10.578125 -15.890625 C -10.816406 -15.535156 -11.085938 -15.09375 -11.390625 -14.5625 Z M -11.390625 -14.5625 "/></g></g></g><g fill="#ffffff" fill-opacity="1"><g transform="translate(81.526042, 119.757444)"><g><path d="M 0.890625 -1.65625 C 1.160156 -2.019531 1.257812 -2.421875 1.1875 -2.859375 C 1.113281 -3.304688 0.898438 -3.664062 0.546875 -3.9375 L -11 -12.296875 C -11.375 -12.546875 -11.773438 -12.632812 -12.203125 -12.5625 C -12.640625 -12.488281 -12.992188 -12.269531 -13.265625 -11.90625 L -13.453125 -11.640625 L -13.671875 -11.796875 L -10.375 -16.359375 L -10.15625 -16.203125 L -10.359375 -15.921875 C -10.609375 -15.566406 -10.703125 -15.171875 -10.640625 -14.734375 C -10.578125 -14.296875 -10.367188 -13.9375 -10.015625 -13.65625 L 1.53125 -5.296875 C 1.894531 -5.035156 2.300781 -4.941406 2.75 -5.015625 C 3.195312 -5.097656 3.546875 -5.316406 3.796875 -5.671875 L 4 -5.953125 L 4.203125 -5.8125 L 0.90625 -1.25 L 0.703125 -1.390625 Z M 0.890625 -1.65625 "/></g></g></g><g fill="#ffffff" fill-opacity="1"><g transform="translate(85.918262, 113.13101)"><g><path d="M 7.421875 -7.75 C 5.597656 -5.738281 3.476562 -4.671875 1.0625 -4.546875 C -1.34375 -4.421875 -3.585938 -5.289062 -5.671875 -7.15625 C -7.753906 -9.03125 -8.863281 -11.171875 -9 -13.578125 C -9.144531 -15.992188 -8.28125 -18.242188 -6.40625 -20.328125 C -4.863281 -22.046875 -3.078125 -23.171875 -1.046875 -23.703125 L 2.015625 -21.65625 L 1.859375 -21.484375 C 0.492188 -22.191406 -0.859375 -22.382812 -2.203125 -22.0625 C -3.554688 -21.738281 -4.765625 -20.988281 -5.828125 -19.8125 C -7.316406 -18.144531 -7.929688 -16.289062 -7.671875 -14.25 C -7.410156 -12.207031 -6.320312 -10.328125 -4.40625 -8.609375 C -2.5 -6.898438 -0.519531 -6.015625 1.53125 -5.953125 C 3.59375 -5.898438 5.367188 -6.664062 6.859375 -8.25 C 8.140625 -9.675781 8.8125 -11.21875 8.875 -12.875 C 8.96875 -14.65625 8.164062 -16.507812 6.46875 -18.4375 L 6.59375 -18.59375 L 9.40625 -15.671875 C 10.25 -12.804688 9.585938 -10.164062 7.421875 -7.75 Z M 7.421875 -7.75 "/></g></g></g><g fill="#ffffff" fill-opacity="1"><g transform="translate(98.618615, 99.340301)"><g><path d="M 1.21875 -1.4375 C 1.550781 -1.738281 1.726562 -2.113281 1.75 -2.5625 C 1.769531 -3.007812 1.640625 -3.40625 1.359375 -3.75 L -8.203125 -14.328125 C -8.515625 -14.648438 -8.890625 -14.816406 -9.328125 -14.828125 C -9.765625 -14.835938 -10.148438 -14.691406 -10.484375 -14.390625 L -10.734375 -14.171875 L -10.921875 -14.375 L -6.734375 -18.15625 L -6.546875 -17.953125 L -6.8125 -17.71875 C -7.132812 -17.425781 -7.3125 -17.0625 -7.34375 -16.625 C -7.375 -16.1875 -7.25 -15.796875 -6.96875 -15.453125 L 2.59375 -4.875 C 2.882812 -4.539062 3.257812 -4.363281 3.71875 -4.34375 C 4.175781 -4.332031 4.566406 -4.472656 4.890625 -4.765625 L 5.15625 -5 L 5.328125 -4.8125 L 1.140625 -1.03125 L 0.96875 -1.21875 Z M 1.21875 -1.4375 "/></g></g></g><g fill="#ffffff" fill-opacity="1"><g transform="translate(104.194198, 93.7394)"><g><path d="M -6.09375 -15 C -5.601562 -17.476562 -4.171875 -19.566406 -1.796875 -21.265625 C 0.566406 -22.960938 2.992188 -23.640625 5.484375 -23.296875 C 7.972656 -22.960938 10.03125 -21.660156 11.65625 -19.390625 C 13.28125 -17.128906 13.847656 -14.765625 13.359375 -12.296875 C 12.867188 -9.828125 11.4375 -7.742188 9.0625 -6.046875 C 6.695312 -4.347656 4.269531 -3.664062 1.78125 -4 C -0.707031 -4.332031 -2.765625 -5.628906 -4.390625 -7.890625 C -6.015625 -10.160156 -6.582031 -12.53125 -6.09375 -15 Z M 2.578125 -5.265625 C 4.679688 -4.828125 6.691406 -5.296875 8.609375 -6.671875 C 10.535156 -8.046875 11.625 -9.796875 11.875 -11.921875 C 12.132812 -14.054688 11.519531 -16.164062 10.03125 -18.25 C 8.539062 -20.332031 6.75 -21.59375 4.65625 -22.03125 C 2.5625 -22.46875 0.554688 -22 -1.359375 -20.625 C -3.285156 -19.25 -4.378906 -17.5 -4.640625 -15.375 C -4.898438 -13.25 -4.285156 -11.144531 -2.796875 -9.0625 C -1.304688 -6.976562 0.484375 -5.710938 2.578125 -5.265625 Z M 2.578125 -5.265625 "/></g></g></g><g fill="#ffffff" fill-opacity="1"><g transform="translate(121.48109, 81.812197)"><g/></g></g><g fill="#ffffff" fill-opacity="1"><g transform="translate(126.121523, 78.558879)"><g><path d="M 21.171875 -9.3125 L 21.546875 -9.46875 L 21.640625 -9.234375 L 16.515625 -7.046875 L 16.421875 -7.265625 L 16.78125 -7.421875 C 17.039062 -7.535156 17.21875 -7.734375 17.3125 -8.015625 C 17.414062 -8.296875 17.40625 -8.5625 17.28125 -8.8125 L 11.140625 -20.25 L 10.875 -7.109375 C 10.851562 -5.953125 10.929688 -5.035156 11.109375 -4.359375 L 10.859375 -4.25 L -0.765625 -14.78125 L 3.15625 -2.78125 C 3.226562 -2.519531 3.398438 -2.320312 3.671875 -2.1875 C 3.953125 -2.0625 4.222656 -2.054688 4.484375 -2.171875 L 4.84375 -2.328125 L 4.9375 -2.109375 L 0.359375 -0.15625 L 0.265625 -0.390625 L 0.640625 -0.546875 C 1.078125 -0.734375 1.398438 -1.023438 1.609375 -1.421875 C 1.816406 -1.828125 1.851562 -2.273438 1.71875 -2.765625 L -2.984375 -18.671875 L -2.734375 -18.78125 L 9.9375 -7.328125 L 10.296875 -24.34375 L 10.515625 -24.4375 L 18.8125 -10.0625 C 19.0625 -9.625 19.410156 -9.34375 19.859375 -9.21875 C 20.304688 -9.09375 20.742188 -9.125 21.171875 -9.3125 Z M 21.171875 -9.3125 "/></g></g></g><g fill="#ffffff" fill-opacity="1"><g transform="translate(147.009092, 69.627078)"><g><path d="M 0.03125 -16.203125 C 1.414062 -18.304688 3.523438 -19.691406 6.359375 -20.359375 C 9.191406 -21.035156 11.703125 -20.75 13.890625 -19.5 C 16.078125 -18.25 17.492188 -16.265625 18.140625 -13.546875 C 18.785156 -10.835938 18.410156 -8.429688 17.015625 -6.328125 C 15.628906 -4.234375 13.519531 -2.847656 10.6875 -2.171875 C 7.851562 -1.503906 5.34375 -1.789062 3.15625 -3.03125 C 0.976562 -4.28125 -0.429688 -6.257812 -1.078125 -8.96875 C -1.722656 -11.6875 -1.351562 -14.097656 0.03125 -16.203125 Z M 4.390625 -3.890625 C 6.160156 -2.691406 8.195312 -2.363281 10.5 -2.90625 C 12.800781 -3.457031 14.472656 -4.664062 15.515625 -6.53125 C 16.554688 -8.40625 16.78125 -10.59375 16.1875 -13.09375 C 15.59375 -15.59375 14.410156 -17.4375 12.640625 -18.625 C 10.867188 -19.820312 8.832031 -20.144531 6.53125 -19.59375 C 4.226562 -19.050781 2.554688 -17.847656 1.515625 -15.984375 C 0.472656 -14.117188 0.25 -11.9375 0.84375 -9.4375 C 1.4375 -6.9375 2.617188 -5.085938 4.390625 -3.890625 Z M 4.390625 -3.890625 "/></g></g></g><g fill="#ffffff" fill-opacity="1"><g transform="translate(167.076176, 64.768488)"><g><path d="M 18.65625 -19.109375 C 18.226562 -19.078125 17.867188 -18.898438 17.578125 -18.578125 C 17.296875 -18.265625 17.160156 -17.894531 17.171875 -17.46875 L 18.140625 -4.25 C 18.203125 -3.257812 18.328125 -2.328125 18.515625 -1.453125 L 18.609375 -0.984375 L 18.375 -0.96875 L 3.328125 -14.875 L 4.25 -2.109375 C 4.28125 -1.679688 4.457031 -1.328125 4.78125 -1.046875 C 5.113281 -0.765625 5.492188 -0.640625 5.921875 -0.671875 L 6.421875 -0.71875 L 6.4375 -0.46875 L 1.15625 -0.078125 L 1.140625 -0.328125 L 1.625 -0.375 C 2.050781 -0.40625 2.40625 -0.582031 2.6875 -0.90625 C 2.96875 -1.226562 3.09375 -1.613281 3.0625 -2.0625 L 2.09375 -15.34375 C 2.019531 -16.382812 1.894531 -17.3125 1.71875 -18.125 L 1.65625 -18.53125 L 1.890625 -18.546875 L 16.9375 -4.640625 L 16.03125 -17.34375 C 15.96875 -17.789062 15.769531 -18.148438 15.4375 -18.421875 C 15.113281 -18.703125 14.738281 -18.828125 14.3125 -18.796875 L 13.828125 -18.765625 L 13.8125 -19.03125 L 19.109375 -19.40625 L 19.125 -19.140625 Z M 18.65625 -19.109375 "/></g></g></g><g fill="#ffffff" fill-opacity="1"><g transform="translate(187.627483, 63.415165)"><g><path d="M 16.15625 -14.640625 C 16.175781 -15.054688 16.050781 -15.421875 15.78125 -15.734375 C 15.507812 -16.046875 15.179688 -16.222656 14.796875 -16.265625 L 9.921875 -16.59375 L 8.890625 -1.25 C 8.878906 -0.8125 9.019531 -0.425781 9.3125 -0.09375 C 9.613281 0.238281 9.976562 0.421875 10.40625 0.453125 L 10.75 0.46875 L 10.734375 0.71875 L 5.125 0.34375 L 5.140625 0.09375 L 5.46875 0.125 C 5.914062 0.144531 6.304688 0.015625 6.640625 -0.265625 C 6.984375 -0.554688 7.175781 -0.914062 7.21875 -1.34375 L 8.25 -16.703125 L 3.390625 -17.03125 C 2.984375 -17.039062 2.625 -16.910156 2.3125 -16.640625 C 2.007812 -16.367188 1.847656 -16.023438 1.828125 -15.609375 L 1.796875 -15.1875 L 1.546875 -15.171875 L 1.765625 -18.390625 C 2.015625 -18.265625 2.453125 -18.128906 3.078125 -17.984375 C 3.703125 -17.835938 4.273438 -17.75 4.796875 -17.71875 L 13.46875 -17.125 C 14.300781 -17.070312 15 -17.085938 15.5625 -17.171875 C 16.125 -17.265625 16.472656 -17.335938 16.609375 -17.390625 L 16.390625 -14.171875 L 16.125 -14.21875 Z M 16.15625 -14.640625 "/></g></g></g><g fill="#ffffff" fill-opacity="1"><g transform="translate(202.573249, 64.288688)"><g><path d="M 18.09375 3.296875 L 18.3125 3.34375 L 18.265625 3.59375 L 12.59375 2.484375 L 12.640625 2.234375 L 12.859375 2.28125 C 13.210938 2.34375 13.5 2.273438 13.71875 2.078125 C 13.945312 1.890625 14.078125 1.695312 14.109375 1.5 C 14.148438 1.300781 14.15625 1.09375 14.125 0.875 L 13.359375 -3.71875 L 6.546875 -5.0625 L 4.015625 -1.09375 C 3.910156 -0.90625 3.835938 -0.710938 3.796875 -0.515625 C 3.765625 -0.328125 3.8125 -0.101562 3.9375 0.15625 C 4.070312 0.425781 4.3125 0.59375 4.65625 0.65625 L 4.890625 0.703125 L 4.84375 0.953125 L -0.21875 -0.046875 L -0.171875 -0.296875 L 0.046875 -0.25 C 0.460938 -0.164062 0.898438 -0.21875 1.359375 -0.40625 C 1.816406 -0.601562 2.222656 -0.9375 2.578125 -1.40625 L 10.953125 -13.828125 C 11.835938 -15.078125 12.316406 -15.882812 12.390625 -16.25 L 12.625 -16.21875 L 16.203125 1.28125 C 16.328125 1.84375 16.566406 2.296875 16.921875 2.640625 C 17.273438 2.992188 17.664062 3.210938 18.09375 3.296875 Z M 7.015625 -5.78125 L 13.203125 -4.5625 L 11.78125 -13.25 Z M 7.015625 -5.78125 "/></g></g></g><g fill="#ffffff" fill-opacity="1"><g transform="translate(219.534599, 67.426579)"><g><path d="M 18.984375 -15.296875 C 19.660156 -15.054688 20.207031 -15.164062 20.625 -15.625 L 20.875 -15.53125 C 20.488281 -14.769531 20.003906 -14.3125 19.421875 -14.15625 C 19.140625 -14.09375 18.835938 -14.113281 18.515625 -14.21875 C 18.203125 -14.332031 17.773438 -14.6875 17.234375 -15.28125 C 16.691406 -15.875 16.304688 -16.210938 16.078125 -16.296875 C 15.472656 -16.515625 14.910156 -16.34375 14.390625 -15.78125 L 14.140625 -15.875 C 14.472656 -16.46875 14.835938 -16.898438 15.234375 -17.171875 C 15.640625 -17.441406 16.039062 -17.503906 16.4375 -17.359375 C 16.84375 -17.222656 17.300781 -16.867188 17.8125 -16.296875 C 18.332031 -15.722656 18.722656 -15.390625 18.984375 -15.296875 Z M 24.78125 -9.96875 C 24.375 -10.113281 23.972656 -10.097656 23.578125 -9.921875 C 23.191406 -9.742188 22.914062 -9.457031 22.75 -9.0625 L 18.296875 3.4375 C 17.960938 4.363281 17.707031 5.265625 17.53125 6.140625 L 17.421875 6.609375 L 17.1875 6.53125 L 9.046875 -12.28125 L 4.75 -0.21875 C 4.601562 0.175781 4.617188 0.566406 4.796875 0.953125 C 4.984375 1.347656 5.28125 1.617188 5.6875 1.765625 L 6.15625 1.9375 L 6.078125 2.171875 L 1.09375 0.390625 L 1.171875 0.15625 L 1.625 0.3125 C 2.019531 0.457031 2.414062 0.4375 2.8125 0.25 C 3.207031 0.0703125 3.476562 -0.222656 3.625 -0.640625 L 8.109375 -13.203125 C 8.460938 -14.179688 8.722656 -15.078125 8.890625 -15.890625 L 8.984375 -16.296875 L 9.21875 -16.203125 L 17.390625 2.578125 L 21.671875 -9.421875 C 21.796875 -9.847656 21.757812 -10.253906 21.5625 -10.640625 C 21.375 -11.023438 21.082031 -11.285156 20.6875 -11.421875 L 20.234375 -11.59375 L 20.328125 -11.84375 L 25.3125 -10.0625 L 25.21875 -9.8125 Z M 24.78125 -9.96875 "/></g></g></g><g fill="#ffffff" fill-opacity="1"><g transform="translate(238.844035, 74.216603)"><g><path d="M 10.921875 -11.96875 C 13.359375 -12.59375 15.851562 -12.195312 18.40625 -10.78125 C 20.957031 -9.375 22.617188 -7.472656 23.390625 -5.078125 C 24.160156 -2.679688 23.867188 -0.265625 22.515625 2.171875 C 21.171875 4.617188 19.28125 6.148438 16.84375 6.765625 C 14.414062 7.390625 11.925781 6.992188 9.375 5.578125 C 6.820312 4.171875 5.15625 2.273438 4.375 -0.109375 C 3.601562 -2.503906 3.890625 -4.921875 5.234375 -7.359375 C 6.585938 -9.804688 8.484375 -11.34375 10.921875 -11.96875 Z M 5.859375 0.0625 C 6.367188 2.144531 7.660156 3.757812 9.734375 4.90625 C 11.804688 6.050781 13.851562 6.28125 15.875 5.59375 C 17.90625 4.914062 19.539062 3.453125 20.78125 1.203125 C 22.019531 -1.046875 22.382812 -3.207031 21.875 -5.28125 C 21.375 -7.351562 20.085938 -8.960938 18.015625 -10.109375 C 15.941406 -11.253906 13.890625 -11.488281 11.859375 -10.8125 C 9.835938 -10.132812 8.207031 -8.671875 6.96875 -6.421875 C 5.726562 -4.171875 5.359375 -2.007812 5.859375 0.0625 Z M 5.859375 0.0625 "/></g></g></g><g fill="#ffffff" fill-opacity="1"><g transform="translate(257.055023, 84.679084)"><g/></g></g><g fill="#ffffff" fill-opacity="1"><g transform="translate(261.966942, 87.904119)"><g><path d="M 6.703125 -3.34375 C 5.265625 -3.007812 4.117188 -2.320312 3.265625 -1.28125 C 2.242188 -0.03125 1.976562 1.363281 2.46875 2.90625 C 2.75 3.820312 3.273438 4.597656 4.046875 5.234375 C 4.816406 5.867188 5.609375 6.269531 6.421875 6.4375 C 7.960938 6.75 9.328125 6.300781 10.515625 5.09375 C 10.617188 5.007812 10.707031 4.925781 10.78125 4.84375 C 11.175781 4.34375 11.472656 3.695312 11.671875 2.90625 C 11.867188 2.125 11.859375 1.242188 11.640625 0.265625 L 10.359375 -5.5 C 10.078125 -6.738281 10.332031 -7.84375 11.125 -8.8125 C 11.914062 -9.78125 12.894531 -10.34375 14.0625 -10.5 C 15.238281 -10.664062 16.359375 -10.316406 17.421875 -9.453125 C 17.953125 -9.015625 18.472656 -8.476562 18.984375 -7.84375 L 19.78125 -7.1875 L 17.828125 -4.703125 L 17.625 -4.859375 C 18.132812 -5.503906 18.316406 -6.191406 18.171875 -6.921875 C 18.023438 -7.648438 17.613281 -8.285156 16.9375 -8.828125 C 16.269531 -9.378906 15.523438 -9.617188 14.703125 -9.546875 C 13.890625 -9.472656 13.195312 -9.085938 12.625 -8.390625 C 12.0625 -7.703125 11.878906 -6.882812 12.078125 -5.9375 L 13.390625 -0.015625 C 13.898438 2.328125 13.488281 4.3125 12.15625 5.9375 C 11.15625 7.15625 9.816406 7.804688 8.140625 7.890625 C 6.691406 7.972656 5.269531 7.441406 3.875 6.296875 C 3.03125 5.609375 2.40625 4.832031 2 3.96875 C 1.226562 2.351562 1.296875 0.742188 2.203125 -0.859375 C 2.328125 -1.097656 2.519531 -1.378906 2.78125 -1.703125 C 3.050781 -2.023438 3.507812 -2.394531 4.15625 -2.8125 C 4.800781 -3.226562 5.625 -3.503906 6.625 -3.640625 Z M 6.703125 -3.34375 "/></g></g></g><g fill="#ffffff" fill-opacity="1"><g transform="translate(272.333043, 96.151615)"><g><path d="M 20.5 -6.953125 L 20.53125 -7.21875 C 22.4375 -7.25 23.992188 -7.242188 25.203125 -7.203125 C 25.191406 -6.535156 25.109375 -5.960938 24.953125 -5.484375 C 23.722656 -5.847656 22.238281 -6.335938 20.5 -6.953125 Z M 12.921875 13.09375 L 13.0625 13.25 L 12.875 13.421875 L 8.875 9.25 L 9.0625 9.078125 L 9.234375 9.25 C 9.472656 9.507812 9.738281 9.625 10.03125 9.59375 C 10.320312 9.5625 10.539062 9.472656 10.6875 9.328125 C 10.832031 9.191406 10.960938 9.023438 11.078125 8.828125 L 13.078125 4.625 L 8.28125 -0.375 L 3.90625 1.40625 C 3.71875 1.488281 3.550781 1.597656 3.40625 1.734375 C 3.269531 1.878906 3.179688 2.097656 3.140625 2.390625 C 3.097656 2.691406 3.195312 2.96875 3.4375 3.21875 L 3.609375 3.390625 L 3.421875 3.5625 L -0.15625 -0.15625 L 0.03125 -0.328125 L 0.1875 -0.171875 C 0.476562 0.140625 0.863281 0.347656 1.34375 0.453125 C 1.832031 0.554688 2.359375 0.519531 2.921875 0.34375 L 16.921875 -5.03125 C 18.347656 -5.550781 19.195312 -5.941406 19.46875 -6.203125 L 19.640625 -6.03125 L 12.53125 10.34375 C 12.3125 10.882812 12.242188 11.398438 12.328125 11.890625 C 12.421875 12.378906 12.617188 12.78125 12.921875 13.09375 Z M 9.046875 -0.703125 L 13.421875 3.859375 L 17.25 -4.0625 Z M 9.046875 -0.703125 "/></g></g></g><g fill="#ffffff" fill-opacity="1"><g transform="translate(284.416459, 108.462764)"><g><path d="M 26 6.078125 C 25.75 5.722656 25.414062 5.503906 25 5.421875 C 24.582031 5.347656 24.191406 5.425781 23.828125 5.65625 L 13.015625 13.328125 C 12.203125 13.898438 11.472656 14.488281 10.828125 15.09375 L 10.46875 15.40625 L 10.328125 15.21875 L 14.4375 -4.859375 L 4 2.546875 C 3.644531 2.785156 3.429688 3.117188 3.359375 3.546875 C 3.296875 3.972656 3.390625 4.363281 3.640625 4.71875 L 3.9375 5.125 L 3.734375 5.265625 L 0.671875 0.9375 L 0.875 0.796875 L 1.15625 1.203125 C 1.394531 1.546875 1.722656 1.753906 2.140625 1.828125 C 2.566406 1.898438 2.960938 1.804688 3.328125 1.546875 L 14.21875 -6.15625 C 15.0625 -6.75 15.789062 -7.332031 16.40625 -7.90625 L 16.703125 -8.171875 L 16.859375 -7.96875 L 12.75 12.078125 L 23.140625 4.71875 C 23.492188 4.445312 23.703125 4.097656 23.765625 3.671875 C 23.828125 3.253906 23.738281 2.875 23.5 2.53125 L 23.21875 2.140625 L 23.4375 1.984375 L 26.5 6.296875 L 26.28125 6.453125 Z M 26 6.078125 "/></g></g></g><g fill="#ffffff" fill-opacity="1"><g transform="translate(296.275663, 125.202681)"><g><path d="M 4.453125 9.75 C 3.265625 7.3125 3.054688 4.953125 3.828125 2.671875 C 4.597656 0.390625 6.234375 -1.375 8.734375 -2.625 C 11.242188 -3.882812 13.644531 -4.132812 15.9375 -3.375 C 18.226562 -2.625 20.003906 -0.992188 21.265625 1.515625 C 22.285156 3.566406 22.671875 5.648438 22.421875 7.765625 L 19.421875 9.828125 L 19.3125 9.625 C 20.46875 8.632812 21.140625 7.445312 21.328125 6.0625 C 21.523438 4.6875 21.273438 3.289062 20.578125 1.875 C 19.566406 -0.132812 18.0625 -1.390625 16.0625 -1.890625 C 14.070312 -2.398438 11.925781 -2.078125 9.625 -0.921875 C 7.332031 0.222656 5.78125 1.738281 4.96875 3.625 C 4.164062 5.507812 4.222656 7.4375 5.140625 9.40625 C 6.003906 11.113281 7.195312 12.304688 8.71875 12.984375 C 10.332031 13.722656 12.347656 13.65625 14.765625 12.78125 L 14.84375 12.96875 L 11.125 14.5 C 8.132812 14.238281 5.910156 12.65625 4.453125 9.75 Z M 4.453125 9.75 "/></g></g></g><g fill="#ffffff" fill-opacity="1"><g transform="translate(304.644843, 141.657258)"><g><path d="M 4.5625 13.28125 C 4.695312 13.707031 4.960938 14.019531 5.359375 14.21875 C 5.765625 14.425781 6.171875 14.472656 6.578125 14.359375 L 12.921875 12.3125 L 9.6875 2.328125 L 3.34375 4.375 C 2.925781 4.507812 2.617188 4.78125 2.421875 5.1875 C 2.234375 5.59375 2.203125 6.003906 2.328125 6.421875 L 2.4375 6.75 L 2.203125 6.828125 L 0.46875 1.46875 L 0.703125 1.390625 L 0.8125 1.703125 C 0.945312 2.128906 1.210938 2.445312 1.609375 2.65625 C 2.003906 2.863281 2.410156 2.90625 2.828125 2.78125 L 16.421875 -1.625 C 16.847656 -1.769531 17.15625 -2.039062 17.34375 -2.4375 C 17.539062 -2.832031 17.570312 -3.242188 17.4375 -3.671875 L 17.328125 -3.984375 L 17.578125 -4.0625 L 19.3125 1.296875 L 19.0625 1.375 L 18.953125 1.046875 C 18.828125 0.628906 18.566406 0.316406 18.171875 0.109375 C 17.785156 -0.0976562 17.375 -0.144531 16.9375 -0.03125 L 10.40625 2.09375 L 13.640625 12.078125 L 20.171875 9.953125 C 20.765625 9.753906 21.125 9.359375 21.25 8.765625 C 21.289062 8.472656 21.269531 8.1875 21.1875 7.90625 L 21.078125 7.59375 L 21.328125 7.515625 L 23.0625 12.875 L 22.8125 12.953125 L 22.71875 12.640625 C 22.570312 12.210938 22.300781 11.894531 21.90625 11.6875 C 21.519531 11.476562 21.109375 11.4375 20.671875 11.5625 L 7.09375 15.953125 C 6.6875 16.109375 6.378906 16.382812 6.171875 16.78125 C 5.972656 17.175781 5.945312 17.585938 6.09375 18.015625 L 6.1875 18.328125 L 5.953125 18.40625 L 4.21875 13.046875 L 4.453125 12.96875 Z M 4.5625 13.28125 "/></g></g></g><g fill="#ffffff" fill-opacity="1"><g transform="translate(310.644894, 160.6536)"><g><path d="M 0.578125 1.796875 C 0.660156 2.234375 0.882812 2.578125 1.25 2.828125 C 1.625 3.085938 2.03125 3.1875 2.46875 3.125 L 16.625 0.546875 C 17.03125 0.472656 17.34375 0.253906 17.5625 -0.109375 C 17.78125 -0.484375 17.847656 -0.890625 17.765625 -1.328125 L 17.71875 -1.640625 L 17.96875 -1.703125 L 19.3125 5.703125 C 19.40625 6.222656 19.554688 6.78125 19.765625 7.375 C 19.984375 7.96875 20.164062 8.382812 20.3125 8.625 L 17.125 9.203125 L 17.078125 8.96875 L 17.546875 8.875 C 17.941406 8.800781 18.253906 8.597656 18.484375 8.265625 C 18.722656 7.929688 18.816406 7.566406 18.765625 7.171875 L 17.828125 2.03125 L 10.015625 3.453125 L 10.796875 7.71875 C 10.867188 8.0625 11.046875 8.328125 11.328125 8.515625 C 11.617188 8.703125 11.9375 8.765625 12.28125 8.703125 L 12.640625 8.640625 L 12.6875 8.890625 L 8.6875 9.625 L 8.640625 9.375 L 9.03125 9.296875 C 9.363281 9.234375 9.625 9.066406 9.8125 8.796875 C 10.007812 8.523438 10.09375 8.222656 10.0625 7.890625 L 9.265625 3.59375 L 1.703125 4.96875 L 2.375 8.578125 C 2.59375 9.828125 3.035156 10.726562 3.703125 11.28125 C 4.378906 11.84375 5.3125 12.238281 6.5 12.46875 L 6.546875 12.71875 L 2.1875 12 L 0.28125 1.515625 L 0.53125 1.46875 Z M 0.578125 1.796875 "/></g></g></g><g fill="#ffffff" fill-opacity="1"><g transform="translate(313.252699, 174.389942)"><g><path d="M 15.796875 1.171875 L 15.34375 1.203125 L 15.328125 0.953125 L 18.5625 0.75 C 18.46875 1.007812 18.390625 1.460938 18.328125 2.109375 C 18.265625 2.765625 18.238281 3.21875 18.25 3.46875 C 18.269531 3.71875 18.28125 3.851562 18.28125 3.875 L 18.734375 11.015625 C 18.785156 11.859375 18.875 12.5 19 12.9375 C 19.125 13.375 19.207031 13.640625 19.25 13.734375 L 19.015625 13.734375 L 1.015625 3.859375 L 1.515625 12 C 1.578125 12.90625 1.914062 13.632812 2.53125 14.1875 C 3.15625 14.738281 3.953125 15.113281 4.921875 15.3125 L 4.9375 15.5625 L 0.9375 14.96875 L 0.09375 1.546875 L 0.328125 1.53125 L 17.96875 11.21875 L 17.4375 2.59375 C 17.382812 2.164062 17.207031 1.816406 16.90625 1.546875 C 16.601562 1.273438 16.234375 1.148438 15.796875 1.171875 Z M 15.796875 1.171875 "/></g></g></g><g fill="#ffffff" fill-opacity="1"><g transform="translate(127.582892, 227.211044)"><g><path d="M 145.234375 21.390625 C 145.765625 21.390625 146.289062 21.390625 146.8125 21.390625 L 146.8125 22.703125 C 144.351562 23.054688 141.601562 23.234375 138.5625 23.234375 C 135.53125 23.234375 131.789062 22.570312 127.34375 21.25 C 122.894531 19.9375 118.867188 17.472656 115.265625 13.859375 C 107.867188 6.460938 103.378906 -3.128906 101.796875 -14.921875 L 93.734375 -73.671875 L 66.28125 -11.625 C 63.8125 -6.25 62.316406 -1.757812 61.796875 1.84375 L 60.46875 1.84375 L 26.28125 -72.484375 L 20.46875 -6.859375 C 20.289062 -5.367188 20.75 -4.050781 21.84375 -2.90625 C 22.945312 -1.757812 24.160156 -1.1875 25.484375 -1.1875 L 27.59375 -1.1875 L 27.59375 0 L 1.984375 0 L 1.984375 -1.3125 L 4.09375 -1.3125 C 6.46875 -1.3125 8.554688 -2.035156 10.359375 -3.484375 C 12.171875 -4.941406 13.296875 -6.859375 13.734375 -9.234375 L 22.046875 -81.328125 C 14.304688 -96.554688 5.019531 -104.171875 -5.8125 -104.171875 C -6.78125 -104.171875 -7.789062 -104.128906 -8.84375 -104.046875 L -8.84375 -105.359375 C -6.46875 -105.972656 -4.53125 -106.28125 -3.03125 -106.28125 C -1.539062 -106.28125 0.0820312 -106.210938 1.84375 -106.078125 C 3.601562 -105.953125 5.671875 -105.535156 8.046875 -104.828125 C 10.429688 -104.128906 12.675781 -103.097656 14.78125 -101.734375 C 16.894531 -100.367188 18.742188 -98.957031 20.328125 -97.5 C 21.910156 -96.050781 23.410156 -94.445312 24.828125 -92.6875 C 27.203125 -89.519531 29.09375 -86.484375 30.5 -83.578125 L 62.3125 -14.65625 L 97.828125 -94.265625 L 99.015625 -94.265625 L 111.296875 -16.109375 C 113.148438 -3.785156 117.132812 5.539062 123.25 11.875 C 129.363281 18.21875 136.691406 21.390625 145.234375 21.390625 Z M 145.234375 21.390625 "/></g></g></g></svg>