<?xml version="1.0" standalone="no"?>
<!DOCTYPE svg PUBLIC "-//W3C//DTD SVG 20010904//EN"
 "http://www.w3.org/TR/2001/REC-SVG-20010904/DTD/svg10.dtd">
<svg version="1.0" xmlns="http://www.w3.org/2000/svg"
 width="700.000000pt" height="700.000000pt" viewBox="0 0 700.000000 700.000000"
 preserveAspectRatio="xMidYMid meet">
<metadata>
Created by potrace 1.14, written by Peter Selinger 2001-2017
</metadata>
<g transform="translate(0.000000,700.000000) scale(0.100000,-0.100000)"
fill="#000000" stroke="none">
<path d="M3533 6128 c-1 -18 1 -25 4 -15 4 14 16 17 64 17 53 0 60 -2 55 -17
-2 -10 -7 -72 -11 -138 -7 -139 -11 -155 -32 -155 -33 0 -6 -9 42 -14 39 -5
46 -3 32 5 -17 10 -18 20 -11 128 4 64 7 131 8 149 0 17 5 32 11 33 43 4 92
-5 103 -19 10 -14 12 -13 12 10 0 25 -3 27 -42 26 -58 -2 -199 9 -218 17 -12
4 -16 -2 -17 -27z"/>
<path d="M3403 6132 c12 -13 18 -46 22 -117 3 -54 8 -102 11 -106 2 -4 0 -10
-5 -14 -6 -3 -25 9 -44 27 -18 18 -71 67 -117 108 -46 41 -92 84 -102 95 -20
20 -20 20 -14 -25 3 -25 8 -88 12 -140 3 -52 7 -104 8 -115 1 -11 -1 -27 -6
-37 -7 -14 -3 -15 25 -11 36 5 49 13 24 13 -11 0 -17 8 -18 23 0 12 -2 33 -4
47 -2 14 -6 60 -9 103 -5 61 -3 76 7 71 12 -8 53 -45 180 -164 65 -62 107 -94
94 -73 -3 5 -8 47 -11 93 -4 47 -9 115 -12 152 -5 57 -3 68 13 77 15 8 10 10
-26 11 -42 0 -43 -1 -28 -18z"/>
<path d="M3960 6018 c-30 -46 -56 -85 -59 -88 -3 -3 -23 -31 -45 -62 -21 -32
-42 -58 -47 -58 -5 0 -9 -4 -9 -9 0 -5 16 -11 35 -13 24 -3 31 -1 25 7 -6 7 0
27 17 54 25 43 25 43 72 36 62 -8 81 -15 81 -26 0 -13 0 -16 10 -49 6 -22 5
-34 -6 -44 -12 -13 -9 -16 28 -24 45 -9 61 -6 40 7 -7 4 -29 84 -48 176 -19
93 -36 170 -38 172 -2 2 -27 -33 -56 -79z m54 -51 c4 -26 7 -53 9 -60 2 -12
-16 -13 -75 -6 -16 2 -28 7 -28 10 0 4 17 35 37 68 41 65 48 64 57 -12z"/>
<path d="M2845 6075 c-103 -36 -145 -118 -115 -226 31 -113 200 -151 296 -67
45 40 57 63 60 118 7 133 -112 219 -241 175z m118 -20 c18 -8 43 -32 57 -52
21 -30 25 -48 25 -106 0 -66 -1 -70 -37 -102 -98 -90 -233 -31 -251 110 -15
114 103 199 206 150z"/>
<path d="M4383 6063 c-7 -2 -13 -9 -13 -15 0 -5 6 -8 13 -5 6 2 25 -7 40 -19
23 -19 33 -22 48 -14 22 12 26 25 4 16 -8 -3 -28 6 -44 19 -16 14 -30 25 -32
24 -2 0 -10 -3 -16 -6z"/>
<path d="M4215 5893 c-37 -107 -55 -147 -70 -153 -11 -5 -17 -9 -14 -9 4 -1
23 -8 43 -16 35 -15 36 -15 24 4 -10 16 -5 39 28 136 37 112 39 115 51 88 7
-15 28 -63 48 -106 19 -43 35 -80 35 -82 0 -2 14 -34 30 -71 l31 -68 45 130
c25 71 48 139 51 151 3 12 15 25 27 29 21 7 21 7 1 15 -32 12 -45 10 -45 -8 0
-29 -73 -234 -80 -226 -4 5 -38 79 -75 166 -38 87 -71 159 -74 162 -4 2 -29
-62 -56 -142z"/>
<path d="M2544 5893 c-3 -194 -4 -215 -13 -211 -4 2 -46 38 -92 80 -111 101
-132 119 -135 115 -2 -2 15 -66 37 -143 49 -165 49 -166 37 -181 -8 -10 -4
-10 21 -2 29 10 55 33 31 27 -13 -3 -26 28 -63 144 -14 47 -19 74 -12 70 11
-6 153 -133 191 -169 10 -10 13 12 14 115 1 70 2 135 2 145 -1 9 1 17 3 17 9
0 115 -212 110 -220 -9 -15 6 -11 45 10 28 15 31 19 14 20 -17 0 -38 29 -99
135 -42 74 -80 135 -84 135 -3 0 -7 -39 -7 -87z"/>
<path d="M4695 5844 c-5 -1 -22 -5 -37 -8 -58 -13 -117 -86 -125 -156 -14
-119 142 -232 255 -184 48 20 70 40 95 89 40 79 8 178 -73 224 -42 23 -96 40
-115 35z m108 -49 c68 -47 84 -113 46 -192 -41 -84 -119 -118 -195 -83 -48 21
-69 45 -82 90 -15 57 -2 105 44 159 33 39 55 50 109 50 27 1 52 -7 78 -24z"/>
<path d="M1960 5671 c-62 -31 -86 -50 -108 -90 -51 -90 -9 -205 88 -244 131
-52 290 85 251 215 -14 45 -65 106 -100 120 -45 18 -95 17 -131 -1z m147 -53
c12 -11 31 -41 43 -65 34 -73 13 -141 -57 -184 -72 -45 -159 -16 -208 68 -89
151 94 301 222 181z"/>
<path d="M5133 5549 c-12 -4 -29 -19 -39 -34 -15 -24 -15 -30 1 -111 17 -79
17 -87 2 -119 -30 -62 -122 -57 -154 9 -14 29 -14 39 -3 66 7 17 26 38 41 46
16 8 29 17 29 19 0 3 -17 -3 -39 -14 -78 -40 -66 -142 21 -187 60 -31 132 7
147 78 4 20 0 62 -11 108 -17 72 -17 76 1 100 35 47 107 17 97 -40 l-4 -25 19
24 c19 23 19 25 2 43 -34 37 -74 51 -110 37z"/>
<path d="M1671 5446 c-25 -26 -29 -34 -15 -30 25 6 25 6 128 -109 64 -71 87
-104 83 -118 -5 -19 -5 -19 22 1 15 10 33 26 40 34 10 12 9 14 -10 9 -16 -5
-29 2 -51 28 -16 19 -49 54 -71 79 -74 79 -98 112 -93 126 8 20 3 18 -33 -20z"/>
<path d="M5504 5324 c38 -14 61 -11 51 7 -4 5 -25 9 -48 8 l-42 0 39 -15z"/>
<path d="M1545 5314 c-101 -52 -138 -170 -81 -253 67 -95 188 -116 261 -44 45
45 57 70 58 118 0 37 -5 51 -27 73 l-27 27 22 -40 c28 -51 20 -101 -22 -150
-54 -62 -145 -56 -211 12 -62 66 -72 106 -41 170 23 50 67 75 122 70 l43 -5
-28 19 c-35 23 -32 23 -69 3z"/>
<path d="M5305 5263 c-86 -35 -156 -57 -181 -57 l-41 -1 31 -32 c35 -38 34
-38 32 -17 -1 11 15 24 46 37 l47 19 44 -48 45 -48 -21 -43 c-14 -28 -28 -43
-40 -43 -15 0 -13 -5 13 -31 17 -17 43 -47 57 -66 22 -29 29 -32 37 -20 10 13
191 147 199 147 2 0 -13 -82 -34 -182 -20 -101 -36 -184 -35 -185 1 -2 38 23
82 55 165 121 185 133 202 120 13 -11 14 -10 4 8 -6 11 -18 26 -26 33 -12 10
-15 9 -20 -6 -5 -16 -175 -143 -191 -143 -4 0 -4 8 -1 18 3 9 8 35 12 57 3 22
16 91 30 153 25 117 29 155 16 136 -13 -19 -246 -184 -260 -184 -17 0 -40 35
-36 55 2 11 29 79 60 150 60 139 75 175 71 174 -1 0 -65 -25 -142 -56z m64
-54 c-17 -35 -33 -66 -35 -68 -4 -4 -38 30 -62 61 -12 15 -8 19 30 36 79 34
93 40 96 37 2 -2 -11 -32 -29 -66z"/>
<path d="M1298 5031 c-26 -38 -26 -39 -5 -38 13 1 70 -32 134 -78 88 -63 112
-85 112 -104 1 -23 2 -22 24 10 22 32 22 34 5 39 -10 3 -70 42 -134 88 -94 68
-114 87 -109 103 9 27 4 23 -27 -20z"/>
<path d="M1214 4852 c-27 -4 -54 -33 -93 -100 -28 -49 -29 -53 -11 -47 12 4
26 2 33 -3 7 -5 29 -19 50 -31 85 -48 108 -61 145 -85 22 -14 42 -30 44 -37 2
-7 14 4 26 25 19 32 19 35 4 27 -14 -8 -44 6 -138 60 -65 39 -123 74 -128 79
-13 13 26 70 52 77 65 16 123 -58 88 -112 -16 -24 -10 -34 10 -16 5 5 41 12
80 15 81 5 111 17 138 53 l19 25 -24 -15 c-26 -17 -57 -24 -138 -32 -47 -5
-53 -4 -47 10 17 45 -57 116 -110 107z"/>
<path d="M2324 4744 c-5 -1 -30 -5 -56 -9 -26 -3 -49 -12 -52 -20 -4 -12 6
-14 53 -14 69 1 148 -20 217 -58 72 -39 190 -166 252 -269 l53 -89 -6 -70 c-4
-38 -8 -81 -10 -95 -3 -14 -6 -46 -9 -71 -3 -25 -12 -108 -21 -185 -9 -76 -18
-159 -21 -184 -2 -25 -7 -63 -10 -85 -2 -22 -7 -56 -9 -75 -13 -119 -17 -148
-20 -170 -2 -14 -7 -54 -10 -90 -4 -36 -10 -95 -15 -131 -5 -37 -12 -98 -16
-135 -3 -38 -15 -88 -26 -112 -25 -54 -92 -95 -155 -96 -48 -1 -62 -25 -15
-27 122 -3 445 1 450 5 9 10 -3 15 -44 21 -27 3 -47 14 -66 34 -29 32 -28 21
-13 191 7 72 11 121 20 225 3 39 8 90 10 115 5 49 14 148 20 220 2 25 6 72 9
105 3 33 8 92 11 130 3 39 7 86 10 105 2 19 7 69 11 110 3 41 7 76 8 77 2 2
72 -146 282 -602 17 -38 55 -122 84 -185 29 -63 66 -144 83 -180 16 -36 62
-135 101 -220 86 -187 91 -195 104 -187 5 4 13 24 17 44 7 42 58 177 98 263
23 48 131 292 413 932 38 86 72 152 75 145 4 -7 10 -37 14 -67 17 -136 65
-492 70 -520 9 -56 57 -407 60 -436 23 -244 122 -457 279 -601 130 -119 269
-161 514 -154 39 1 52 5 52 16 0 11 -12 15 -42 16 -274 7 -487 199 -579 519
-18 62 -46 210 -69 365 -13 90 -19 128 -30 195 -5 30 -12 73 -15 95 -4 22 -19
123 -35 225 -16 102 -32 203 -35 225 -6 40 -42 264 -51 320 -3 17 -11 70 -19
118 -7 49 -16 91 -19 95 -15 14 18 84 -453 -973 -113 -253 -211 -471 -218
-485 l-13 -24 -15 34 c-8 19 -31 71 -52 115 -20 44 -45 98 -55 120 -338 733
-496 1067 -528 1117 -108 165 -258 275 -421 308 -47 10 -131 18 -147 14z"/>
<path d="M5750 4730 c-148 -27 -202 -173 -108 -291 31 -38 95 -56 124 -34 17
13 16 14 -16 9 -68 -11 -135 59 -133 138 2 105 158 184 250 128 60 -36 79
-133 36 -183 -13 -14 -13 -18 -3 -12 57 31 64 73 25 151 -35 70 -103 107 -175
94z"/>
<path d="M1032 4584 c-9 -30 -8 -35 4 -30 8 3 63 -14 122 -39 118 -50 144 -75
137 -133 -11 -87 -78 -118 -170 -78 -16 7 -56 23 -87 36 -32 12 -63 29 -69 37
-11 12 -14 11 -25 -9 -17 -30 -17 -41 0 -35 8 3 55 -11 104 -32 48 -21 101
-41 116 -45 87 -22 175 88 143 178 -16 45 -28 54 -140 102 -62 26 -106 51
-113 63 -10 19 -11 18 -22 -15z"/>
<path d="M6010 4412 c0 -18 -18 -27 -137 -65 -101 -33 -143 -42 -156 -35 -16
8 -18 7 -13 -11 3 -12 9 -30 12 -41 5 -20 6 -20 22 -1 14 16 121 55 129 47 1
-1 16 -42 32 -90 l28 -87 -26 -10 c-14 -6 -45 -16 -69 -22 -36 -10 -45 -9 -52
3 -9 13 -10 13 -9 0 1 -23 27 -87 28 -69 1 19 13 24 165 74 60 19 118 33 128
29 21 -6 21 -1 3 46 -7 19 -14 27 -14 18 -1 -21 -10 -26 -82 -48 l-59 -18 -29
91 -28 92 61 21 c53 19 64 20 83 8 l22 -14 -16 48 c-19 56 -23 62 -23 34z"/>
<path d="M1207 4165 c-9 -7 -41 -16 -70 -20 -28 -4 -65 -9 -82 -11 -16 -2 -41
-6 -54 -9 -13 -2 -49 -7 -80 -11 -31 -3 -57 -7 -59 -9 -1 -1 59 -48 133 -104
75 -56 140 -112 144 -123 7 -20 9 -19 19 12 15 43 15 57 1 43 -9 -9 -23 -5
-55 18 -24 16 -41 35 -39 42 2 6 6 23 9 37 10 57 25 80 53 81 16 0 36 2 45 4
10 2 22 -4 27 -13 7 -13 12 -7 21 27 13 50 12 54 -13 36z m-145 -119 l-15 -54
-64 47 -65 46 43 5 c24 3 60 6 80 8 l37 3 -16 -55z"/>
<path d="M6131 4017 c-1 -22 0 -22 -161 -51 -121 -22 -137 -23 -151 -10 -16
14 -17 13 -9 -23 5 -21 12 -60 15 -88 8 -60 19 -75 54 -74 16 0 20 3 11 6 -23
10 -36 26 -44 58 -19 74 -22 70 53 86 l69 15 11 -40 c7 -27 7 -46 -1 -59 -9
-17 -8 -19 7 -14 9 4 24 7 33 7 14 0 14 1 -1 13 -9 6 -19 31 -23 53 l-6 42 64
11 c36 6 67 11 70 11 6 0 16 -31 24 -74 4 -22 1 -34 -13 -44 -17 -14 -16 -14
7 -8 14 3 29 6 33 6 5 0 5 5 2 11 -4 5 -15 49 -25 97 -10 48 -19 79 -19 69z"/>
<path d="M1226 3925 c-9 -34 -53 -72 -90 -79 -41 -7 -120 -14 -236 -21 -52 -3
-96 -7 -97 -9 -3 -2 149 -89 230 -130 42 -23 40 -28 -23 -49 -223 -77 -254
-93 -275 -144 -21 -50 -19 -64 4 -27 25 41 58 64 92 64 38 0 251 -49 266 -62
15 -12 14 -12 17 22 2 23 0 25 -38 24 -22 -1 -54 3 -71 7 -16 5 -50 12 -75 15
-25 3 -48 9 -52 12 -4 4 51 27 122 51 72 25 130 47 130 50 0 4 -33 23 -72 44
-114 60 -168 91 -168 97 0 3 44 7 98 8 53 2 110 5 126 8 68 11 113 53 122 113
6 37 -1 41 -10 6z"/>
<path d="M6153 3718 c12 -10 18 -35 23 -96 l7 -84 -41 21 c-23 12 -98 52 -167
91 l-126 70 6 -123 c4 -67 9 -125 12 -129 2 -5 15 -8 28 -8 l24 0 -22 23 c-19
19 -23 35 -25 105 l-3 84 66 -36 c36 -20 81 -45 100 -56 158 -89 183 -100 170
-80 -7 11 -13 91 -14 183 -1 44 -3 47 -28 47 -24 0 -25 -1 -10 -12z"/>
<path d="M1124 2628 c3 -7 17 -53 31 -103 131 -441 405 -855 770 -1166 310
-263 735 -464 1132 -533 48 -9 104 -18 123 -22 58 -11 540 -13 605 -4 33 6 78
12 100 15 151 20 401 92 572 165 671 288 1177 851 1387 1543 l34 112 -35 3
c-20 2 -39 0 -43 -5 -4 -4 -15 -35 -25 -68 -47 -170 -150 -403 -250 -565 -474
-771 -1329 -1203 -2230 -1127 -177 15 -341 48 -516 103 -737 234 -1331 838
-1552 1579 l-23 80 -42 3 c-31 2 -41 0 -38 -10z"/>
</g>
</svg>
